<svg xmlns="http://www.w3.org/2000/svg" xmlns:xlink="http://www.w3.org/1999/xlink" width="68.00000715255737" height="68.00000715255737" viewBox="154.0000023841858 850.0000023841858 68.00000715255737 68.00000715255737"><g transform="matrix(1,0,0,1,154,850)"><path d="M 3.000000476837158 34.00000381469727 C 3.000000476837158 8.471501350402832 8.471501350402832 3.000000476837158 34.00000381469727 3.000000476837158 C 59.52850341796875 3.000000476837158 65.00000762939453 8.471501350402832 65.00000762939453 34.00000381469727 C 65.00000762939453 59.52850341796875 59.52850341796875 65.00000762939453 34.00000381469727 65.00000762939453 C 8.471501350402832 65.00000762939453 3.000000476837158 59.52850341796875 3.000000476837158 34.00000381469727 Z" transform="matrix(1,0,0,1,0.0000019073486328125,0.0000019073486328125)" fill="none" stroke="#00cc66" stroke-width="6"/><path d="M 9 16.88888931274414 L 14.79631328582764 22.68520164489746 L 14.79631328582764 22.68520164489746 C 15.39977741241455 23.28866767883301 16.37800407409668 23.28866767883301 16.98146629333496 22.68520164489746 L 16.98146629333496 22.68520164489746 L 29.66666793823242 10" transform="matrix(1,0,0,1,14.666666984558105,17.11111068725586)" fill="none" stroke="#00cc66" stroke-width="6" stroke-linecap="round" stroke-linejoin="round"/></g></svg>