<svg xmlns="http://www.w3.org/2000/svg" xmlns:xlink="http://www.w3.org/1999/xlink" width="67.96093368530273" height="67.96093368530273" viewBox="860.5 847.5 67.96093368530273 67.96093368530273"><path d="M 11.29414081573486 32.98046493530273 C 11.29414081573486 21.00345230102539 21.00345230102539 11.29414081573486 32.98046493530273 11.29414081573486 M 46.92137145996094 19.03925704956055 L 32.98015594482422 32.98046493530273 M 63.96093368530273 32.98046493530273 C 63.96093368530273 50.09036254882812 50.09036254882812 63.96093368530273 32.98046493530273 63.96093368530273 C 15.8704195022583 63.96093368530273 2 50.09036254882812 2 32.98046493530273 C 2 15.8704195022583 15.8704195022583 2 32.98046493530273 2 C 50.09036254882812 2 63.96093368530273 15.8704195022583 63.96093368530273 32.98046493530273 Z M 36.07851409912109 32.98046493530273 C 36.07851409912109 34.69152069091797 34.69152069091797 36.07851409912109 32.98046493530273 36.07851409912109 C 31.26941299438477 36.07851409912109 29.88241958618164 34.69152069091797 29.88241958618164 32.98046493530273 C 29.88241958618164 31.26941299438477 31.26941299438477 29.88241958618164 32.98046493530273 29.88241958618164 C 34.69152069091797 29.88241958618164 36.07851409912109 31.26941299438477 36.07851409912109 32.98046493530273 Z" transform="matrix(1,0,0,1,861.5,848.5)" fill="none" stroke="#00cc66" stroke-width="6" stroke-linecap="round" stroke-linejoin="round"/></svg>