<svg xmlns="http://www.w3.org/2000/svg" xmlns:xlink="http://www.w3.org/1999/xlink" width="71.71923828125" height="56.180084228515625" viewBox="385 855.909912109375 71.71923828125 56.180084228515625"><path d="M 84.13327789306641 116.3204574584961 L 76.96134948730469 116.3204574584961 L 76.96134948730469 99.58596038818359 C 76.95905303955078 97.6064453125 75.35490417480469 96.00230407714844 73.37539672851562 96 L 19.58596038818359 96 C 17.6064453125 96.00230407714844 16.00230407714844 97.60645294189453 16 99.58596038818359 L 16 136.3420715332031 C 16.00230407714844 138.3215942382812 17.6064453125 139.9257354736328 19.58596038818359 139.9280395507812 L 45.28535461425781 139.9280395507812 L 45.28535461425781 147.3987884521484 L 36.32044982910156 147.3987884521484 L 36.32044982910156 152.1800689697266 L 59.03154373168945 152.1800689697266 L 59.03154373168945 147.3987884521484 L 50.0666389465332 147.3987884521484 L 50.0666389465332 139.9280395507812 L 63.81282424926758 139.9280395507812 L 63.81282424926758 148.5941162109375 C 63.8150520324707 150.5736694335938 65.41923522949219 152.1778717041016 67.39878845214844 152.1800842285156 L 84.13327789306641 152.1800689697266 C 86.11283111572266 152.1778717041016 87.71701812744141 150.5736541748047 87.71923065185547 148.5941162109375 L 87.71923828125 119.9064178466797 C 87.71701812744141 117.9268646240234 86.11283111572266 116.3226776123047 84.13327789306641 116.3204574584961 Z M 63.81282424926758 119.9064178466797 L 63.81282424926758 135.1467590332031 L 20.78128051757812 135.1467590332031 L 20.78128051757812 100.7812805175781 L 72.18006896972656 100.7812805175781 L 72.18006896972656 116.3204574584961 L 67.39878845214844 116.3204574584961 C 65.41923522949219 116.3226776123047 63.8150520324707 117.9268646240234 63.81282806396484 119.9064178466797 Z M 82.93795776367188 147.3987884521484 L 68.59410858154297 147.3987884521484 L 68.59410858154297 121.1017379760742 L 82.93795776367188 121.1017379760742 L 82.93795776367188 147.3987884521484 Z" transform="matrix(1,0,0,1,369,759.909912109375)" fill="#00cc66" fill-rule="evenodd"/></svg>