<svg xmlns="http://www.w3.org/2000/svg" xmlns:xlink="http://www.w3.org/1999/xlink" width="80.39498329162598" height="102.47752380371094" viewBox="752.802770614624 1827 80.39498329162598 102.47752380371094"><path d="M 23.10622787475586 105.3525238037109 L 73.86695861816406 105.3525238037109 C 83.76109313964844 105.3525238037109 88.68408203125 100.3336715698242 88.68408203125 90.39182281494141 L 88.68408203125 46.99192810058594 C 88.68408203125 40.82614898681641 88.01497650146484 38.1492919921875 84.19118499755859 34.23006439208984 L 57.80705642700195 7.415621757507324 C 54.17455673217773 3.687479019165039 51.21096801757812 2.875 45.80994415283203 2.875 L 23.10622787475586 2.875 C 13.26002407073975 2.875 8.289098739624023 7.941570281982422 8.289098739624023 17.8834171295166 L 8.289098739624023 90.39182281494141 C 8.289098739624023 100.381591796875 13.26002407073975 105.3525238037109 23.10622787475586 105.3525238037109 Z M 23.48860740661621 97.65702056884766 C 18.56540298461914 97.65702056884766 15.98439693450928 95.02828979492188 15.98439693450928 90.24845886230469 L 15.98439693450928 18.02678489685059 C 15.98439693450928 13.29487419128418 18.56540298461914 10.57029724121094 23.53632926940918 10.57029724121094 L 44.75825119018555 10.57029724121094 L 44.75825119018555 38.34058380126953 C 44.75825119018555 44.36299896240234 47.81728363037109 47.32638549804688 53.7442512512207 47.32638549804688 L 80.98879241943359 47.32638549804688 L 80.98879241943359 90.24845886230469 C 80.98879241943359 95.02828979492188 78.45550537109375 97.65702056884766 73.48458099365234 97.65702056884766 L 23.48860740661621 97.65702056884766 Z M 54.60466003417969 40.10911178588867 C 52.74048233032227 40.10911178588867 51.97572326660156 39.34435272216797 51.97572326660156 37.43245697021484 L 51.97572326660156 12.05209255218506 L 79.50698852539062 40.10911178588867 L 54.60466003417969 40.10911178588867 Z M 66.07601928710938 60.4708366394043 L 29.79775619506836 60.4708366394043 C 28.0771541595459 60.4708366394043 26.8343677520752 61.76133728027344 26.8343677520752 63.38649749755859 C 26.8343677520752 65.05937957763672 28.0771541595459 66.34988403320312 29.79775619506836 66.34988403320312 L 66.07601928710938 66.34988403320312 C 67.7489013671875 66.34988403320312 69.03939819335938 65.05937957763672 69.03939819335938 63.38649749755859 C 69.03939819335938 61.76133728027344 67.7489013671875 60.4708366394043 66.07601928710938 60.4708366394043 Z M 66.07601928710938 77.15213775634766 L 29.79775619506836 77.15213775634766 C 28.0771541595459 77.15213775634766 26.8343677520752 78.4903564453125 26.8343677520752 80.16323852539062 C 26.8343677520752 81.78839874267578 28.0771541595459 83.03118133544922 29.79775619506836 83.03118133544922 L 66.07601928710938 83.03118133544922 C 67.7489013671875 83.03118133544922 69.03939819335938 81.78839874267578 69.03939819335938 80.16323852539062 C 69.03939819335938 78.4903564453125 67.7489013671875 77.15213775634766 66.07601928710938 77.15213775634766 Z" transform="matrix(1,0,0,1,744.513671875,1824.125)" fill="#adaacb" fill-rule="evenodd"/></svg>