<svg xmlns="http://www.w3.org/2000/svg" xmlns:xlink="http://www.w3.org/1999/xlink" width="115.92861195581054" height="85.5" viewBox="144.50000653833752 966 115.92861195581054 85.5"><path d="M 22.89440727233887 37.78571701049805 L 44.7513313293457 37.78571701049805 M 33.82297897338867 26.85714149475098 L 33.82297897338867 48.71429061889648 M 72.07276153564453 43.25 L 72.12740325927734 43.25 M 88.46561431884766 32.32143020629883 L 88.52025604248047 32.32143020629883 M 47.20479583740234 5 L 64.15554809570312 5 C 78.49875640869141 5 85.67009735107422 5 91.29939270019531 7.718098640441895 C 96.25550079345703 10.11129379272461 100.3733901977539 13.94552803039551 103.1137161254883 18.71858215332031 C 106.2256393432617 24.13975143432617 106.7365493774414 31.29310607910156 107.7589111328125 45.59963989257812 L 109.1031265258789 64.42137145996094 C 109.7621154785156 73.65000915527344 102.4530944824219 81.5 93.20095825195312 81.5 C 88.46944427490234 81.5 83.98217010498047 79.3984375 80.95330810546875 75.76358795166016 L 78.90311431884766 73.30358123779297 C 77.02831268310547 71.05338287353516 76.09064483642578 69.92827606201172 75.02291870117188 69.01902770996094 C 72.78529357910156 67.11363220214844 70.0755615234375 65.84427642822266 67.17893981933594 65.34539031982422 C 65.79702758789062 65.10713958740234 64.33259582519531 65.10713958740234 61.40373992919922 65.10713958740234 L 49.95660781860352 65.10713958740234 C 47.02775192260742 65.10713958740234 45.56332015991211 65.10713958740234 44.18124389648438 65.34539031982422 C 41.28440475463867 65.84427642822266 38.57510375976562 67.11363220214844 36.33710098266602 69.01902770996094 C 35.26953506469727 69.92827606201172 34.33197784423828 71.05338287353516 32.45685195922852 73.30358123779297 L 30.4068717956543 75.76358795166016 C 27.37785339355469 79.3984375 22.89085388183594 81.5 18.15933036804199 81.5 C 8.907092094421387 81.5 1.597953796386719 73.65000915527344 2.257165431976318 64.42137145996094 L 3.601542234420776 45.59963989257812 C 4.62347412109375 31.29310607910156 5.134384155273438 24.13975143432617 8.246677398681641 18.71858215332031 C 10.98685359954834 13.94552803039551 15.10473918914795 10.11129379272461 20.06089973449707 7.718098640441895 C 25.6900463104248 5 32.86159515380859 5 47.20479583740234 5 Z" transform="matrix(1,0,0,1,146.7841796875,965.5)" fill="none" stroke="#adaacb" stroke-width="9" stroke-linecap="round" stroke-linejoin="round"/></svg>