<svg xmlns="http://www.w3.org/2000/svg" xmlns:xlink="http://www.w3.org/1999/xlink" width="111.74999237060547" height="111.74999237060547" viewBox="243.25 1822.5 111.74999237060547 111.74999237060547"><path d="M 38.77937316894531 38.3125 C 39.99895477294922 34.84553909301758 42.40621566772461 31.92206954956055 45.57499694824219 30.05986404418945 C 48.7435302734375 28.19770812988281 52.46866607666016 27.51700401306152 56.09110641479492 28.13830947875977 C 59.71353149414062 28.75967216491699 62.99877166748047 30.64288711547852 65.36582946777344 33.45456314086914 C 67.73236083984375 36.26618576049805 69.0281982421875 39.82476043701172 69.02249145507812 43.5 C 69.02249145507812 53.87500381469727 53.46000289916992 59.06250381469727 53.46000289916992 59.06250381469727 M 53.87500381469727 79.81249237060547 L 53.92687225341797 79.81249237060547 M 105.7499923706055 53.87500381469727 C 105.7499923706055 82.52452087402344 82.52452087402344 105.7499923706055 53.87500381469727 105.7499923706055 C 25.2252197265625 105.7499923706055 2 82.52452087402344 2 53.87500381469727 C 2 25.2252197265625 25.2252197265625 2 53.87500381469727 2 C 82.52452087402344 2 105.7499923706055 25.2252197265625 105.7499923706055 53.87500381469727 Z" transform="matrix(1,0,0,1,245.25,1824.5)" fill="none" stroke="#adaacb" stroke-width="8" stroke-linecap="round" stroke-linejoin="round"/></svg>