<svg xmlns="http://www.w3.org/2000/svg" xmlns:xlink="http://www.w3.org/1999/xlink" width="139.08391490089127" height="83.99999977917628" viewBox="135.45703125 804.2500002208237 139.08391490089127 83.99999977917628"><g transform="matrix(1,0,0,1,135.45703125,804.25)"><path d="M 138.9667205810547 123.062744140625 C 138.3291625976562 119.1800994873047 135.0550231933594 116.1664733886719 131.1433258056641 115.8478240966797 C 126.0146484375 115.4131927490234 121.7261734008789 119.4409027099609 121.6973724365234 124.4826354980469 C 121.6683120727539 128.1914215087891 124.0153274536133 131.49462890625 127.4923934936523 132.7116088867188 L 127.4923934936523 137.6954803466797 C 125.5800018310547 136.6523742675781 123.4068450927734 136.1017303466797 121.2336807250977 136.1308135986328 C 118.3360366821289 136.1598663330078 115.4674530029297 136.9710235595703 113.0047073364258 138.5068969726562 L 113.0047073364258 132.6828155517578 C 117.6987457275391 131.0312194824219 120.0748443603516 125.7286682128906 118.1043167114258 121.0636901855469 C 116.3948516845703 117.0650634765625 111.9034576416016 114.9209594726562 107.7309646606445 116.10888671875 C 102.8630676269531 117.4996948242188 100.2552795410156 122.6574401855469 101.9068832397461 127.3802795410156 C 102.7761535644531 129.8432922363281 104.7175903320312 131.8135528564453 107.2094116210938 132.6828155517578 L 107.2094116210938 147.7211303710938 L 107.2384719848633 147.7211303710938 C 107.2384719848633 147.8659057617188 107.2094116210938 147.9819030761719 107.2094116210938 148.1266937255859 L 107.2094116210938 157.9203491210938 C 107.2094116210938 158.325927734375 107.1515502929688 158.7027130126953 107.1224746704102 159.1082611083984 C 102.4284362792969 157.5435791015625 98.86444091796875 147.9525756835938 95.966796875 140.1291656494141 L 95.67695617675781 139.3759002685547 C 90.43228149414062 125.1777954101562 77.13249969482422 101.3889312744141 46.88201141357422 101.3889312744141 C 21.0362606048584 101.35986328125 0 122.2513275146484 0 147.9525756835938 C 0 168.5832672119141 16.89284515380859 185.3310394287109 37.63925933837891 185.3889007568359 L 100.3712692260742 185.3889007568359 C 118.8287811279297 185.3889007568359 133.2586212158203 170.6982879638672 133.2586212158203 151.9221343994141 L 133.2586212158203 148.1264190673828 C 133.2586212158203 147.9816436767578 133.2295684814453 147.8656463623047 133.2295684814453 147.7208557128906 L 133.2586212158203 147.7208557128906 L 133.2586212158203 132.7116088867188 C 137.1994018554688 131.3207855224609 139.6621398925781 127.3221588134766 138.9667205810547 123.062744140625 Z M 107.2096786499023 124.5405120849609 C 107.2096786499023 122.9467620849609 108.5135803222656 121.6428527832031 110.1073226928711 121.6428527832031 C 111.7010726928711 121.6428527832031 113.0049743652344 122.9467620849609 113.0049743652344 124.5405120849609 C 113.0049743652344 126.1342315673828 111.7010726928711 127.4381561279297 110.1073226928711 127.4381561279297 C 108.5135879516602 127.4378662109375 107.2096786499023 126.1339721679688 107.2096786499023 124.5405120849609 Z M 55.63308715820312 179.5941772460938 C 63.68819808959961 173.8569946289062 68.46917724609375 164.5558319091797 68.46917724609375 154.6752624511719 C 68.44010925292969 140.7960510253906 57.168701171875 129.5243682861328 43.28950119018555 129.5243682861328 C 31.84424018859863 129.5243682861328 22.57187843322754 138.7964630126953 22.57187843322754 150.2129364013672 C 22.57187843322754 159.890869140625 29.64200592041016 167.1927032470703 39.00102615356445 167.1927032470703 C 43.08657836914062 167.1927032470703 47.28813171386719 164.4979858398438 48.96852874755859 160.7891845703125 C 49.95378875732422 158.6160278320312 50.93878173828125 154.1827697753906 46.41859436035156 149.0250244140625 C 45.34640502929688 147.8371276855469 43.52095031738281 147.7211303710938 42.33303833007812 148.7642364501953 C 41.1451301574707 149.807373046875 41.02913665771484 151.6328430175781 42.07225799560547 152.8207397460938 C 43.8977165222168 154.906982421875 44.41928100585938 156.7614898681641 43.69480514526367 158.3840484619141 C 42.85459899902344 160.2385711669922 40.59450912475586 161.3973999023438 39.00075531005859 161.3973999023438 C 32.82896041870117 161.3973999023438 28.36663436889648 156.7033843994141 28.36663436889648 150.2129364013672 C 28.39570236206055 141.9839630126953 35.05998992919922 135.3194122314453 43.28895950317383 135.3194122314453 C 53.9809455871582 135.3194122314453 62.64454650878906 143.9830017089844 62.67361068725586 154.6749877929688 C 62.64455032348633 168.4384765625 51.4891357421875 179.5938873291016 37.72565460205078 179.5938873291016 C 20.10860061645508 179.5938873291016 5.794490337371826 165.4248352050781 5.794490337371826 147.9816436767578 C 5.794490337371826 125.4676208496094 24.22294998168945 107.1551513671875 46.91082000732422 107.1551513671875 C 73.65517425537109 107.1551513671875 85.56413269042969 128.5969696044922 90.2872314453125 141.3464202880859 L 90.57707977294922 142.0996856689453 C 94.11201477050781 151.66162109375 98.08184051513672 162.3826751708984 105.5575408935547 164.6427764892578 C 101.6458358764648 172.6690979003906 91.09864807128906 179.5941772460938 76.87172698974609 179.5941772460938 L 55.63308715820312 179.5941772460938 Z M 127.4923934936523 151.9223937988281 C 127.4923934936523 167.4244079589844 115.5834426879883 179.5941772460938 100.4003372192383 179.5941772460938 L 98.74873352050781 179.5941772460938 C 107.3544692993164 174.5233459472656 113.0047073364258 166.6130218505859 113.0047073364258 157.9203491210938 L 113.0047073364258 148.1266937255859 C 113.0047073364258 144.5917663574219 117.3510360717773 141.9258270263672 121.5235137939453 141.9258270263672 C 125.2035064697266 141.9258270263672 127.4923858642578 144.3019409179688 127.4923858642578 148.1266937255859 L 127.4923858642578 151.9223937988281 Z M 130.3900451660156 127.4378662109375 C 128.7962951660156 127.4378662109375 127.4923934936523 126.1339721679688 127.4923934936523 124.5402221679688 C 127.4923934936523 122.9464874267578 128.7962951660156 121.6425933837891 130.3900451660156 121.6425933837891 C 131.9837799072266 121.6425933837891 133.2876892089844 122.9464874267578 133.2876892089844 124.5402221679688 C 133.2876892089844 126.1339721679688 132.0125885009766 127.4378662109375 130.3900451660156 127.4378662109375 Z" transform="matrix(1,0,0,1,0,-101.38890075683594)" fill="#adaacb" fill-rule="evenodd"/></g></svg>