<svg xmlns="http://www.w3.org/2000/svg" xmlns:xlink="http://www.w3.org/1999/xlink" width="113.02008819580078" height="113.01744512934238" viewBox="144 1377.0001406250522 113.02008819580078 113.01744512934238"><g transform="matrix(1,0,0,1,144,1376.994140625)"><path d="M 56.50872039794922 0.006000000052154064 C 25.29862022399902 0.007545196451246738 0.002648908412083983 25.30439758300781 0 56.51472091674805 C 0.002648908412083983 87.72482299804688 25.29862022399902 113.0216751098633 56.50872039794922 113.0234451293945 C 87.72146606445312 113.0216751098633 113.0183258056641 87.72482299804688 113.0200881958008 56.51472091674805 C 113.0183258056641 25.30439758300781 87.72146606445312 0.007545196451246738 56.50872039794922 0.006000000052154064 Z M 21.54599952697754 21.55177879333496 C 26.69812774658203 16.40229988098145 32.97184753417969 12.3964900970459 39.96805572509766 9.913138389587402 C 36.61652374267578 13.96927928924561 33.82258987426758 19.16356658935547 31.63348579406738 25.16996574401855 L 18.27128791809082 25.16996574401855 C 19.30436134338379 23.91283798217773 20.39571189880371 22.7022876739502 21.54599952697754 21.55177879333496 Z M 14.48334789276123 30.4677848815918 L 29.93222045898438 30.4677848815918 C 27.94377326965332 37.515869140625 26.75132179260254 45.44162368774414 26.54095649719238 53.86581420898438 L 7.135938167572021 53.86581420898438 C 7.587798118591309 45.30012512207031 10.22037124633789 37.32955932617188 14.48334789276123 30.4677848815918 Z M 14.48334789276123 82.56166076660156 C 10.22037124633789 75.69987487792969 7.587798118591309 67.72930908203125 7.135938167572021 59.16362762451172 L 26.55927848815918 59.16362762451172 C 26.77140998840332 67.57920837402344 27.93008804321289 75.51887512207031 29.91588401794434 82.56187438964844 L 14.48334789276123 82.56187438964844 Z M 21.54599952697754 91.47721862792969 C 20.39571189880371 90.32692718505859 19.30414009094238 89.11637878417969 18.27106666564941 87.85924530029297 L 31.6420955657959 87.85924530029297 C 32.58687210083008 90.45826721191406 33.63296890258789 92.92395782470703 34.80135726928711 95.19010162353516 C 36.33639907836914 98.15643310546875 38.05907440185547 100.8119659423828 39.95524978637695 103.1125411987305 C 32.96389770507812 100.6292037963867 26.69459342956543 96.62339019775391 21.54599952697754 91.47721862792969 Z M 53.86069488525391 105.8874969482422 C 53.03379440307617 105.8442306518555 52.21197128295898 105.7822113037109 51.39632797241211 105.6976623535156 C 50.09615325927734 105.1148986816406 48.80878448486328 104.3180236816406 47.5333366394043 103.2781066894531 C 43.64120483398438 100.1084671020508 40.03339385986328 94.74178314208984 37.29133224487305 87.8592529296875 L 53.86047744750977 87.8592529296875 L 53.86047744750977 105.8874969482422 Z M 53.86069488525391 82.56166076660156 L 35.44283676147461 82.56166076660156 C 33.35086059570312 75.68090057373047 32.06194686889648 67.70326995849609 31.83855628967285 59.16341400146484 L 53.86047744750977 59.16341400146484 L 53.86047744750977 82.56166076660156 Z M 53.86069488525391 53.86581420898438 L 31.8553295135498 53.86581420898438 C 32.07783508300781 45.32087707519531 33.37293243408203 37.35009002685547 35.46645355224609 30.46778106689453 L 53.86091232299805 30.46778106689453 L 53.86091232299805 53.86581420898438 Z M 53.86069488525391 25.16996574401855 L 37.31583404541016 25.16996574401855 C 38.00212097167969 23.45038223266602 38.7213020324707 21.78995704650879 39.50868988037109 20.27058982849121 C 41.85738754272461 15.7177791595459 44.62328720092773 12.12740421295166 47.5335578918457 9.750892639160156 C 48.80878448486328 8.711195945739746 50.09615325927734 7.914315700531006 51.39654922485352 7.33155632019043 C 52.21219253540039 7.247232437133789 53.03379821777344 7.184982776641846 53.86091613769531 7.141938209533691 L 53.86091613769531 25.16996574401855 Z M 98.53762054443359 30.4677848815918 C 102.8006057739258 37.32956314086914 105.4322891235352 45.30034637451172 105.884147644043 53.86581420898438 L 86.46080780029297 53.86581420898438 C 86.24868011474609 45.45023345947266 85.09000396728516 37.51056671142578 83.10331726074219 30.46778106689453 L 98.53762054443359 30.46778106689453 Z M 91.47409057617188 21.55177879333496 C 92.62437438964844 22.70206642150879 93.71595001220703 23.91283798217773 94.7490234375 25.16996574401855 L 81.37711334228516 25.16996574401855 C 80.43211364746094 22.57116508483887 79.38535308837891 20.10503196716309 78.21784973144531 17.839111328125 C 76.68302154541016 14.87299919128418 74.96012878417969 12.21724605560303 73.06417083740234 9.916669845581055 C 80.05619049072266 12.40156650543213 86.32460784912109 16.40605354309082 91.47409057617188 21.55177879333496 Z M 59.15850830078125 7.141938209533691 C 59.98540878295898 7.184982776641846 60.80723190307617 7.248777866363525 61.62199401855469 7.33155632019043 C 62.92216873168945 7.91630220413208 64.20975494384766 8.711195945739746 65.48587036132812 9.750892639160156 C 69.37887573242188 12.9205322265625 72.98580932617188 18.28721809387207 75.72765350341797 25.16974449157715 L 59.15850830078125 25.16974449157715 L 59.15850830078125 7.141938209533691 Z M 59.15850830078125 30.4677848815918 L 77.57637023925781 30.4677848815918 C 79.66812896728516 37.34854888916016 80.95814514160156 45.32595443725586 81.18064880371094 53.86581420898438 L 59.15850830078125 53.86581420898438 L 59.15850830078125 30.4677848815918 Z M 59.15850830078125 59.16362762451172 L 81.1632080078125 59.16362762451172 C 80.94092559814453 67.70856475830078 79.64582824707031 75.67913055419922 77.55208587646484 82.56187438964844 L 59.15850830078125 82.56187438964844 L 59.15850830078125 59.16362762451172 Z M 65.48564910888672 103.2781066894531 C 64.20954132080078 104.3180236816406 62.92194747924805 105.1131362915039 61.62177658081055 105.6976623535156 C 60.80701446533203 105.7804412841797 59.98519515991211 105.84423828125 59.15829086303711 105.8874969482422 L 59.15829086303711 87.85947418212891 L 75.70314788818359 87.85947418212891 C 75.01686096191406 89.57884216308594 74.29768371582031 91.23948669433594 73.51051330566406 92.75885772705078 C 71.16204071044922 97.31143951416016 68.39591979980469 100.9018173217773 65.48564910888672 103.2781066894531 Z M 91.47409057617188 91.47721862792969 C 86.32284545898438 96.62669372558594 80.04757690429688 100.6327285766602 73.05115509033203 103.1158599853516 C 76.40357208251953 99.05971527099609 79.19551849365234 93.86565399169922 81.38572692871094 87.8592529296875 L 94.7490234375 87.8592529296875 C 93.71572875976562 89.11660003662109 92.62437438964844 90.3271484375 91.47409057617188 91.47721862792969 Z M 98.53762054443359 82.56166076660156 L 83.08609771728516 82.56166076660156 C 85.07453918457031 75.51357269287109 86.26787567138672 67.58605194091797 86.47824096679688 59.16341400146484 L 105.884147644043 59.16341400146484 C 105.4322891235352 67.72930908203125 102.8006057739258 75.69987487792969 98.53762054443359 82.56166076660156 Z" fill="#adaacb" fill-rule="evenodd"/></g></svg>