<svg xmlns="http://www.w3.org/2000/svg" xmlns:xlink="http://www.w3.org/1999/xlink" width="57.54798608053578" height="48.03425019979477" viewBox="105.72621435891735 1288.9828396439552 57.54798608053578 48.03425019979477"><path d="M 8.360780715942383 0.4852824211120605 L 46.42358779907227 0.4852824211120605 C 48.33462905883789 0.4852824211120605 49.88384246826172 2.034491539001465 49.88384246826172 3.945537567138672 L 49.88384246826172 31.67851066589355 L 4.900525569915771 31.67851066589355 L 4.900525569915771 3.945536136627197 C 4.900525569915771 2.034490346908569 6.449734687805176 0.4852810502052307 8.360780715942383 0.4852810502052307 Z M 3.578825950622559 45.51953125 L 51.20554351806641 45.51953125 C 53.1165885925293 45.51953125 54.66580200195312 43.97031784057617 54.66580200195312 42.05927276611328 C 54.66580200195312 41.52208709716797 54.54072570800781 40.99227523803711 54.30049133300781 40.51180267333984 L 49.88384628295898 31.67851066589355 L 4.900528430938721 31.67851066589355 L 0.4838827550411224 40.51179885864258 C -0.3707630634307861 42.22108840942383 0.3220643103122711 44.2995719909668 2.0313560962677 45.15421676635742 C 2.511831283569336 45.39445114135742 3.041641473770142 45.51952362060547 3.578829288482666 45.51952362060547 Z" transform="matrix(1,0,0,1,107.1083984375,1289.99755859375)" fill="none" stroke="#00cc66" stroke-width="3" stroke-linecap="round" stroke-linejoin="round"/></svg>