<svg xmlns="http://www.w3.org/2000/svg" xmlns:xlink="http://www.w3.org/1999/xlink" width="62.16178837418556" height="62.09046844633838" viewBox="626.4357343614101 849.9998635849116 62.16178837418556 62.09046844633838"><path d="M 30.15860176086426 0.3359243869781494 C 29.26736831665039 0.6249743103981018 28.75349998474121 1.138840675354004 28.50459671020508 1.977888226509094 C 28.36408424377441 2.447594165802002 28.33999824523926 3.539561033248901 28.33999824523926 9.240266799926758 C 28.33999824523926 16.79169654846191 28.33196830749512 16.69534683227539 29.10276794433594 17.46614837646484 C 30.1345157623291 18.49388122558594 32.54326629638672 18.49388122558594 33.57501602172852 17.46614837646484 C 34.34580993652344 16.69534683227539 34.33778381347656 16.79169654846191 34.33778381347656 9.240266799926758 C 34.33778381347656 1.933727979660034 34.32574081420898 1.805261373519897 33.7315788269043 1.098694920539856 C 33.23377227783203 0.5085514783859253 32.69983291625977 0.3118369877338409 31.49947357177734 0.2797202467918396 C 30.90933227539062 0.2636620104312897 30.30714416503906 0.2877494096755981 30.15860176086426 0.3359243869781494 M 10.27438259124756 8.26873779296875 C 9.640079498291016 8.557788848876953 8.704680442810059 9.473112106323242 8.379499435424805 10.12347507476807 C 8.042274475097656 10.80193901062012 8.026216506958008 11.55668067932129 8.331324577331543 12.23112964630127 C 8.628403663635254 12.89353561401367 17.95829010009766 22.25554275512695 18.69295883178711 22.62889862060547 C 19.73273658752441 23.16283798217773 20.80061531066895 22.90188980102539 21.87652206420898 21.85006904602051 C 22.93637275695801 20.81430625915527 23.21739196777344 19.69022560119629 22.67943954467773 18.64241981506348 C 22.30608367919922 17.90774917602539 12.94407939910889 8.577860832214355 12.28167343139648 8.280781745910645 C 11.67145729064941 8.003776550292969 10.86854076385498 7.999760627746582 10.27438259124756 8.26873779296875 M 50.82165145874023 8.332971572875977 C 50.32785797119141 8.561802864074707 49.48480224609375 9.352675437927246 45.46218872070312 13.38733005523682 C 41.76476287841797 17.09279251098633 40.63666152954102 18.28913497924805 40.45600509643555 18.68256568908691 C 40.15089797973633 19.34497261047363 40.15491104125977 20.11175727844238 40.46002197265625 20.76211738586426 C 40.74104309082031 21.36430549621582 41.66439437866211 22.31174659729004 42.28665542602539 22.63692665100098 C 42.91694259643555 22.96612358093262 43.85234451293945 22.96211051940918 44.50672149658203 22.62889862060547 C 45.17715454101562 22.28364562988281 54.45083618164062 13.00995922088623 54.79609298706055 12.33952331542969 C 55.12929916381836 11.68916130065918 55.13331985473633 10.7497501373291 54.80813598632812 10.12749004364014 C 54.47893905639648 9.497200012207031 53.62785339355469 8.662167549133301 52.98551940917969 8.336986541748047 C 52.26690673828125 7.971659183502197 51.6045036315918 7.971659183502197 50.82165145874023 8.332971572875977 M 2.028430700302124 28.4460277557373 C 0.844129204750061 28.81938743591309 0.257999986410141 29.7628116607666 0.257999986410141 31.28433609008789 C 0.2620146572589874 32.83797454833984 0.840114414691925 33.76936340332031 2.024416208267212 34.12264633178711 C 2.498136520385742 34.26315689086914 3.553971767425537 34.2872428894043 9.290809631347656 34.2872428894043 C 15.26852321624756 34.2872428894043 16.06742286682129 34.26716613769531 16.55720138549805 34.10658264160156 C 17.27982711791992 33.87374114990234 17.8659553527832 33.2876091003418 18.09880065917969 32.56498718261719 C 18.44405746459961 31.50112724304199 18.27142906188965 29.99164199829102 17.7214298248291 29.24493217468262 C 17.60099411010742 29.0843505859375 17.25574111938477 28.81537055969238 16.95464706420898 28.65077209472656 L 16.40464973449707 28.34566688537598 L 9.447378158569336 28.32157707214355 C 3.847036123275757 28.30552101135254 2.397772073745728 28.3296070098877 2.028430700302124 28.4460277557373 M 46.37350082397461 28.38982582092285 C 45.87970352172852 28.51026344299316 45.19722366333008 28.92376327514648 44.95635223388672 29.24894523620605 C 44.40635681152344 29.99164199829102 44.23372650146484 31.50112724304199 44.57898330688477 32.56498718261719 C 44.81182861328125 33.2876091003418 45.39795684814453 33.87374114990234 46.12057876586914 34.10658264160156 C 46.61035919189453 34.26716613769531 47.40926361083984 34.2872428894043 53.38697052001953 34.2872428894043 C 59.12380599975586 34.2872428894043 60.17964935302734 34.26315689086914 60.65337371826172 34.12264633178711 C 61.83767318725586 33.76936340332031 62.41577911376953 32.83797454833984 62.4197883605957 31.28433609008789 C 62.4197883605957 29.73872566223145 61.82964706420898 28.81135749816895 60.60519027709961 28.44201469421387 C 60.19168853759766 28.31756591796875 58.89498138427734 28.29347610473633 53.40303039550781 28.30150413513184 C 49.71764755249023 28.30953216552734 46.55415344238281 28.34967803955078 46.37350082397461 28.38982582092285 M 18.70500373840332 40.44962310791016 C 18.21121025085449 40.6784553527832 17.3681468963623 41.46932983398438 13.34553718566895 45.50398635864258 C 9.648107528686523 49.20944213867188 8.520009994506836 50.40579223632812 8.339353561401367 50.79921340942383 C 8.034245491027832 51.46162414550781 8.038260459899902 52.22840881347656 8.343369483947754 52.8787727355957 C 8.6243896484375 53.48096084594727 9.547743797302246 54.42839813232422 10.17000389099121 54.75358200073242 C 10.80029296875 55.08277893066406 11.73569011688232 55.07876205444336 12.39006614685059 54.74555206298828 C 13.06050300598145 54.40029907226562 22.33418464660645 45.12660980224609 22.67943954467773 44.4561767578125 C 23.01265144348145 43.80581283569336 23.01666450500488 42.86640167236328 22.69148445129395 42.24414443969727 C 22.3622875213623 41.61385345458984 21.51119613647461 40.7788200378418 20.86886405944824 40.45363998413086 C 20.1502513885498 40.08831405639648 19.48784637451172 40.08831405639648 18.70500373840332 40.44962310791016 M 42.39103317260742 40.38539123535156 C 41.75672912597656 40.67444229125977 40.82133483886719 41.58976745605469 40.49615478515625 42.24013137817383 C 40.15892791748047 42.91859436035156 40.14286804199219 43.67333602905273 40.44797897338867 44.34778594970703 C 40.74505996704102 45.01019287109375 50.07494354248047 54.3721923828125 50.80961990356445 54.74555206298828 C 51.84939193725586 55.27948760986328 52.91727066040039 55.01854705810547 53.9931755065918 53.96672058105469 C 55.05302810668945 52.93096160888672 55.33404922485352 51.80688095092773 54.79609298706055 50.75907516479492 C 54.42273712158203 50.0244026184082 45.06073379516602 40.69451522827148 44.3983268737793 40.39743423461914 C 43.78810882568359 40.12042999267578 42.98519134521484 40.11641311645508 42.39103317260742 40.38539123535156 M 30.31517219543457 44.44413375854492 C 29.8133487701416 44.57260131835938 29.1348876953125 44.98610305786133 28.89802551269531 45.30726623535156 C 28.34401321411133 46.05398559570312 28.33999824523926 46.10617065429688 28.33999824523926 53.32439041137695 C 28.33999824523926 59.07326507568359 28.36408424377441 60.12910842895508 28.50459671020508 60.60282897949219 C 28.85787963867188 61.78713226318359 29.79327583312988 62.365234375 31.33889007568359 62.365234375 C 32.88450622558594 62.365234375 33.81990432739258 61.78713226318359 34.17318725585938 60.60282897949219 C 34.42208862304688 59.75173568725586 34.4180793762207 46.84485626220703 34.16515731811523 46.10215377807617 C 33.92428588867188 45.39559173583984 33.64727401733398 45.05836486816406 33.02501678466797 44.72114181518555 C 32.58341217041016 44.48026657104492 32.32648086547852 44.42004776000977 31.56771850585938 44.39194488525391 C 31.0578670501709 44.37187576293945 30.49582672119141 44.39596176147461 30.31517219543457 44.44413375854492" transform="matrix(1,0,0,1,626.177734375,849.72509765625)" fill="#00cc66" fill-rule="evenodd"/></svg>