<svg xmlns="http://www.w3.org/2000/svg" xmlns:xlink="http://www.w3.org/1999/xlink" width="64.88720703125" height="61.30720229983058" viewBox="109.75 1295.10888671875 64.88720703125 61.30720229983058"><g transform="matrix(1,0,0,1,109.25,1293.60888671875)"><path d="M 12 30.36032295227051 L 12 17" transform="matrix(1,0,0,1,21.060728073120117,30.421052932739258)" fill="none" stroke="#adaacb" stroke-width="5" stroke-linecap="round" stroke-linejoin="round"/><path d="M1 0L58.88720703125 0A1 1 0 0 1 59.88720703125 1L59.88720703125 42.11878967285156A1 1 0 0 1 58.88720703125 43.11878967285156L1 43.11878967285156A1 1 0 0 1 0 42.11878967285156L0 1A1 1 0 0 1 1 0z" transform="matrix(1,0,0,1,3,4)" fill="none" stroke="#adaacb" stroke-width="5" stroke-linecap="round"/><path d="M 9 21 L 29.04048728942871 21" transform="matrix(1,0,0,1,14.040485382080078,39.781375885009766)" fill="none" stroke="#adaacb" stroke-width="5" stroke-linecap="round" stroke-linejoin="round"/></g></svg>