<svg xmlns="http://www.w3.org/2000/svg" xmlns:xlink="http://www.w3.org/1999/xlink" width="125.78177452087402" height="91.50010108947754" viewBox="729.1093692779541 1404.9775371551514 125.78177452087402 91.50010108947754"><g transform="matrix(1,0,0,1,-4555.88671875,-6381.0224609375)"><path d="M 128.2300415039062 63.44937896728516 L 121.628059387207 63.44937896728516 L 121.628059387207 58.73278045654297 C 121.628059387207 51.65788269042969 115.8121719360352 45.84200286865234 108.7372894287109 45.84200286865234 L 76.03396606445312 45.84200286865234 L 76.03396606445312 38.60737609863281 C 79.49154663085938 37.348388671875 82.00958251953125 34.05051422119141 82.00958251953125 30.1200122833252 C 82.00958251953125 25.09023475646973 77.91934967041016 20.99999809265137 72.88957214355469 20.99999809265137 C 67.85978698730469 20.99999809265137 63.76955795288086 25.09023475646973 63.76955795288086 30.1200122833252 C 63.76955795288086 34.05051422119141 66.28759002685547 37.35464477539062 69.74517059326172 38.60737609863281 L 69.74517059326172 45.84200286865234 L 36.88935470581055 45.84200286865234 C 29.81445693969727 45.84200286865234 23.99857711791992 51.65788269042969 23.99857711791992 58.73278045654297 L 23.99243545532227 63.44937896728516 L 17.54390335083008 63.44937896728516 C 13.45366954803467 63.44937896728516 9.996088027954102 66.75351715087891 9.996088027954102 70.9971923828125 L 9.996088027954102 87.34491729736328 C 9.996088027954102 91.43515777587891 13.30022144317627 94.89273071289062 17.54390335083008 94.89273071289062 L 23.99243545532227 94.89273071289062 L 23.99243545532227 99.60932922363281 C 23.99243545532227 106.6842269897461 29.80831527709961 112.5000991821289 36.88321304321289 112.5000991821289 L 108.7311477661133 112.5000991821289 C 115.8060455322266 112.5000991821289 121.6219253540039 106.684211730957 121.6219253540039 99.60931396484375 L 121.6219253540039 94.89271545410156 L 128.2239074707031 94.89271545410156 C 132.3141479492188 94.89271545410156 135.7717132568359 91.58858489990234 135.7717132568359 87.34490203857422 L 135.7778625488281 70.99717712402344 C 135.7778625488281 66.75349426269531 132.4737243652344 63.44936370849609 128.2300567626953 63.44936370849609 Z M 23.99165725708008 88.60456848144531 L 17.54312515258789 88.60456848144531 C 16.75702667236328 88.60456848144531 16.13059997558594 87.97814178466797 16.13059997558594 87.19203948974609 L 16.13059997558594 70.99681854248047 C 16.13059997558594 70.21071624755859 16.75702667236328 69.73783111572266 17.54312515258789 69.73783111572266 L 23.99165725708008 69.73783111572266 L 23.99165725708008 88.60456848144531 Z M 72.89019012451172 26.97592735290527 C 74.46239471435547 26.97592735290527 75.87485504150391 28.23491096496582 75.87485504150391 29.9605884552002 C 75.87485504150391 31.53278923034668 74.61586761474609 32.94525146484375 72.89019012451172 32.94525146484375 C 71.15825653076172 32.94525146484375 69.90553283691406 31.68626594543457 69.90553283691406 29.9605884552002 C 69.90553283691406 28.23478507995605 71.31806182861328 26.97592735290527 72.89019012451172 26.97592735290527 Z M 115.4999313354492 99.451171875 C 115.4999313354492 103.2219390869141 112.515266418457 106.2128829956055 108.7382202148438 106.2128829956055 L 36.89029312133789 106.2128829956055 C 33.11952972412109 106.2128829956055 30.12857818603516 103.2282180786133 30.12857818603516 99.451171875 L 30.12857818603516 58.73435211181641 C 30.12857818603516 54.96359252929688 33.11323928833008 51.97264099121094 36.89029312133789 51.97264099121094 L 108.7382202148438 51.97264099121094 C 112.5089874267578 51.97264099121094 115.4999313354492 54.95729827880859 115.4999313354492 58.73435211181641 L 115.4999313354492 99.451171875 Z M 129.6497192382812 87.34649658203125 C 129.6497192382812 88.13259887695312 129.0233001708984 88.75902557373047 128.2371978759766 88.75902557373047 L 121.7886657714844 88.75902557373047 L 121.7886657714844 69.57976531982422 L 128.2371978759766 69.57976531982422 C 129.0233001708984 69.57976531982422 129.6497192382812 70.20619964599609 129.6497192382812 70.83875274658203 L 129.6497192382812 87.34649658203125 Z" transform="matrix(1,0,0,1,5275,7765)" fill="#adaacb" fill-rule="evenodd"/><path d="M 49.61502456665039 54.10385513305664 C 48.98859786987305 49.70044326782227 45.21160888671875 46.4025993347168 40.80819320678711 46.4025993347168 C 36.40477752685547 46.4025993347168 32.63401794433594 49.70672988891602 32.00136184692383 54.10385513305664 C 31.84169006347656 55.83579635620117 32.9471321105957 57.24825668334961 34.67284393310547 57.56143569946289 C 36.40477752685547 57.87465286254883 37.81724166870117 56.61566543579102 38.13042068481445 54.88995742797852 C 38.29009246826172 53.6309700012207 39.38940811157227 52.53165817260742 40.80190277099609 52.53165817260742 C 42.06089019775391 52.53165817260742 43.31993865966797 53.4774284362793 43.47338485717773 54.88995742797852 C 43.63305282592773 56.46215438842773 45.04558181762695 57.56143569946289 46.45804214477539 57.56143569946289 L 46.93093490600586 57.56143569946289 C 48.67513656616211 57.40176773071289 49.77441787719727 55.82950210571289 49.61468124389648 54.10385513305664 Z" transform="matrix(1,0,0,1,5287.58251953125,7779.53515625)" fill="#adaacb" fill-rule="evenodd"/><path d="M 74.20964050292969 53.73274612426758 C 73.89643096923828 51.84736251831055 72.797119140625 49.96197891235352 71.37843322753906 48.70296096801758 C 69.80623626708984 47.29043197631836 67.76111602783203 46.50439834594727 65.56255340576172 46.50439834594727 C 63.36399078369141 46.50439834594727 61.31887817382812 47.29050064086914 59.74667358398438 48.70296096801758 C 58.17447662353516 49.96194839477539 57.2286376953125 51.68762588500977 56.91545867919922 53.73274612426758 L 56.91545867919922 54.20563125610352 C 56.60224914550781 55.93756484985352 57.86122894287109 57.50976943969727 59.58693695068359 57.66321182250977 C 61.31887817382812 57.97642135620117 62.89107513427734 56.71744155883789 63.04451751708984 54.99173355102539 C 63.20419311523438 53.73274612426758 64.45704650878906 52.6334342956543 65.71599578857422 52.6334342956543 C 66.97498321533203 52.6334342956543 68.23403167724609 53.57920455932617 68.38748931884766 54.99173355102539 C 68.54716491699219 56.56393051147461 69.95968627929688 57.66321182250977 71.37214660644531 57.66321182250977 L 71.84503936767578 57.66321182250977 C 73.57697296142578 57.35000228881836 74.67624664306641 55.93127822875977 74.51652526855469 54.20563125610352 C 74.20944976806641 53.88628768920898 74.20944976806641 53.88628768920898 74.20944976806641 53.73274612426758 Z" transform="matrix(1,0,0,1,5301.81982421875,7779.59375)" fill="#adaacb" fill-rule="evenodd"/><path d="M 66.12570190429688 63.63969039916992 C 64.71317291259766 62.69392013549805 62.82157135009766 63.01326370239258 61.88202667236328 64.26611328125 C 60.93625640869141 65.52510070800781 58.26470947265625 66.93760681152344 54.64739227294922 66.93760681152344 C 51.03007507324219 66.93760681152344 48.35859680175781 65.52508544921875 47.41275787353516 64.26612854003906 C 46.46698760986328 62.85359573364258 44.42809295654297 62.5341911315918 43.16907501220703 63.63969802856445 C 41.75654602050781 64.58546447753906 41.43714141845703 66.47090148925781 42.54264831542969 67.88337707519531 C 44.90094757080078 71.02778625488281 49.61754608154297 73.07289123535156 54.80706024169922 73.07289123535156 C 59.99657440185547 73.07289123535156 64.71317291259766 71.02778625488281 67.07147216796875 67.88337707519531 C 67.85142517089844 66.47085571289062 67.53822326660156 64.58537292480469 66.12570190429688 63.63969802856445 Z" transform="matrix(1,0,0,1,5293.2431640625,7789.0185546875)" fill="#adaacb" fill-rule="evenodd"/></g></svg>