<svg xmlns="http://www.w3.org/2000/svg" xmlns:xlink="http://www.w3.org/1999/xlink" width="70.38720849349164" height="58.250069612420475" viewBox="107 1017.9996309338442 70.38720849349164 58.250069612420475"><g transform="matrix(1,0,0,1,105.25,1014.46875)"><path d="M 62.75251388549805 38.70697021484375 L 7.764331817626953 38.70697021484375 C 6.169228553771973 38.70697021484375 4.639456748962402 38.07323455810547 3.51154613494873 36.94528961181641 C 2.383635997772217 35.81734466552734 1.75 34.28764343261719 1.75 32.69264221191406 L 1.75 18.94559478759766 C 1.776910305023193 17.36537170410156 2.421371459960938 15.85835647583008 3.545398235321045 14.74690628051758 C 4.669425010681152 13.63580322265625 6.18376636505127 13.00859069824219 7.764331817626953 13 L 62.75251388549805 13 C 64.34475708007812 13.00893402099609 65.86930847167969 13.64542388916016 66.99519348144531 14.77165222167969 C 68.12141418457031 15.89753341674805 68.75790405273438 17.42208099365234 68.766845703125 19.01433181762695 L 68.766845703125 32.76137542724609 C 68.74862670898438 34.34468841552734 68.10697937011719 35.85686492919922 66.98109436035156 36.96969604492188 C 65.855224609375 38.08286285400391 64.33583068847656 38.70697021484375 62.75251388549805 38.70697021484375 Z M 7.764331817626953 18.08640670776367 C 7.53647518157959 18.08640670776367 7.317931175231934 18.17679214477539 7.156781196594238 18.33797836303711 C 6.99566650390625 18.49916076660156 6.905141830444336 18.71773910522461 6.905141830444336 18.94559478759766 L 6.905141830444336 32.69264221191406 C 6.895622253417969 32.81121063232422 6.910813331604004 32.93012237548828 6.949716567993164 33.04250335693359 C 6.988620758056641 33.15488433837891 7.050378799438477 33.25798797607422 7.131142616271973 33.34528350830078 C 7.211873054504395 33.43223571777344 7.309854507446289 33.50199890136719 7.418834686279297 33.54907989501953 C 7.527848243713379 33.59651184082031 7.645488739013672 33.62091064453125 7.764331817626953 33.62056732177734 L 62.75251388549805 33.62056732177734 C 62.98036575317383 33.62056732177734 63.19894790649414 33.53018188476562 63.36012649536133 33.36899566650391 C 63.52131271362305 33.20780944824219 63.61169815063477 32.98923492431641 63.61169815063477 32.76137542724609 L 63.61169815063477 19.01433181762695 C 63.61169815063477 18.78647232055664 63.52131271362305 18.56789779663086 63.36012649536133 18.40671539306641 C 63.19894790649414 18.24552917480469 62.98036575317383 18.15514373779297 62.75251388549805 18.15514373779297 L 7.764331817626953 18.08640670776367 Z" transform="matrix(1,0,0,1,0,23.0739803314209)" fill="#adaacb" fill-rule="evenodd"/><path d="M 15.20109272003174 21.1351432800293 L 8.327570915222168 21.1351432800293 C 7.643963813781738 21.1351432800293 6.988333702087402 20.8636360168457 6.504952430725098 20.38008499145508 C 6.021573066711426 19.89687728881836 5.750000953674316 19.24114227294922 5.750000953674316 18.55757141113281 C 5.750000953674316 17.87399673461914 6.021573066711426 17.21826553344727 6.504952430725098 16.73505401611328 C 6.988333702087402 16.25150680541992 7.643963813781738 15.97999954223633 8.327570915222168 15.97999954223633 L 15.20109272003174 15.97999954223633 C 15.88469791412354 15.97999954223633 16.54032897949219 16.25150680541992 17.02370834350586 16.73505401611328 C 17.5070915222168 17.21826553344727 17.77866363525391 17.87399673461914 17.77866363525391 18.55757141113281 C 17.77866363525391 19.24114227294922 17.5070915222168 19.89687728881836 17.02370834350586 20.38008499145508 C 16.54032897949219 20.8636360168457 15.88469791412354 21.1351432800293 15.20109272003174 21.1351432800293 Z" transform="matrix(1,0,0,1,9.74704360961914,30.335527420043945)" fill="#adaacb" fill-rule="evenodd"/><path d="M 17.52387619018555 25.44540023803711 C 17.18397903442383 25.44540023803711 16.84751892089844 25.3776969909668 16.53443145751953 25.24538040161133 C 16.22134017944336 25.11340713500977 15.93780899047852 24.91991806030273 15.7006721496582 24.67625427246094 C 15.4638786315918 24.43292999267578 15.27795028686523 24.14424514770508 15.15422821044922 23.82771682739258 C 15.0305061340332 23.51119232177734 14.97138977050781 23.17335891723633 14.98067092895508 22.83346176147461 L 14.98067092895508 12.52317810058594 C 15.00713729858398 11.84545135498047 15.29272842407227 11.20346450805664 15.77903366088867 10.73022079467773 C 16.26498794555664 10.25698089599609 16.91419219970703 9.988327026367188 17.59260940551758 9.980010986328125 C 18.27343368530273 9.997951507568359 18.92023468017578 10.28103637695312 19.39519119262695 10.76905822753906 C 19.8704948425293 11.25672912597656 20.13615798950195 11.91109085083008 20.13581085205078 12.59191131591797 L 20.13581085205078 22.90219497680664 C 20.13134765625 23.24071884155273 20.06020355224609 23.57511520385742 19.926513671875 23.88614273071289 C 19.79282379150391 24.19717025756836 19.59933471679688 24.4786376953125 19.35669708251953 24.71474456787109 C 19.11406326293945 24.95084762573242 18.82743835449219 25.13712310791016 18.51296997070312 25.26256561279297 C 18.19850921630859 25.38766098022461 17.86239242553711 25.44987106323242 17.52387619018555 25.44540023803711 Z" transform="matrix(1,0,0,1,32.23767852783203,15.714984893798828)" fill="#adaacb" fill-rule="evenodd"/><path d="M 32.24967193603516 15.27813911437988 C 31.73999786376953 15.27546119689941 31.24063873291016 15.13279914855957 30.80623245239258 14.8657283782959 C 22.35179901123047 9.229440689086914 17.05918502807617 14.48768615722656 16.88735198974609 14.52205467224121 C 16.65055847167969 14.76523780822754 16.36702346801758 14.95848655700684 16.05427932739258 15.0904598236084 C 15.74153137207031 15.2224292755127 15.40541839599609 15.2904109954834 15.06586456298828 15.2904109954834 C 14.72631454467773 15.2904109954834 14.39019775390625 15.2224292755127 14.07745361328125 15.0904598236084 C 13.76470565795898 14.95848655700684 13.48117446899414 14.76523780822754 13.24438095092773 14.52205467224121 C 12.76185989379883 14.03877639770508 12.49069976806641 13.38362693786621 12.49069976806641 12.70056915283203 C 12.49069976806641 12.01751327514648 12.76185989379883 11.36239624023438 13.24438095092773 10.87908554077148 C 16.13126373291016 7.992208480834961 24.138916015625 4.211771011352539 33.69310760498047 10.56977653503418 C 34.21996307373047 10.95046806335449 34.58323669433594 11.51609039306641 34.71073913574219 12.15336799621582 C 34.83824157714844 12.7906494140625 34.72035980224609 13.45253372192383 34.38046264648438 14.00653839111328 C 34.16600799560547 14.38502883911133 33.85669708251953 14.70128059387207 33.48312377929688 14.92422294616699 C 33.10988998413086 15.14716529846191 32.68476486206055 15.26910209655762 32.24967193603516 15.27813911437988 Z" transform="matrix(1,0,0,1,26.17251968383789,8.698440551757812)" fill="#adaacb" fill-rule="evenodd"/><path d="M 51.39743041992188 15.65965270996094 C 50.88775634765625 15.65697288513184 50.38839721679688 15.51431465148926 49.95398712158203 15.24724197387695 C 28.2336597442627 0.744110107421875 13.76489448547363 14.7660961151123 13.6274242401123 14.90356636047363 C 13.3906307220459 15.14675140380859 13.10709571838379 15.34003448486328 12.79435157775879 15.47197341918945 C 12.48160743713379 15.60394287109375 12.1454906463623 15.67192268371582 11.80597496032715 15.67192268371582 C 11.46642112731934 15.67192268371582 11.13033866882324 15.60394287109375 10.81749534606934 15.47197341918945 C 10.50467872619629 15.34003448486328 10.22142219543457 15.14675140380859 9.984491348266602 14.90356636047363 C 9.501796722412109 14.4202880859375 9.230670928955078 13.76517295837402 9.230670928955078 13.08208274841309 C 9.230670928955078 12.39902687072754 9.501796722412109 11.74391174316406 9.984491348266602 11.26060104370117 C 10.15632820129395 11.26060104370117 27.61504173278809 -5.923189163208008 52.84086608886719 10.95129203796387 C 53.36772155761719 11.33197975158691 53.73099517822266 11.89760398864746 53.85849761962891 12.53488159179688 C 53.98600006103516 13.17215919494629 53.86811828613281 13.83408164978027 53.52822113037109 14.38805198669434 C 53.31376647949219 14.76657676696777 53.00445556640625 15.08279228210449 52.6312255859375 15.30573463439941 C 52.25765228271484 15.52867889404297 51.83252716064453 15.65065002441406 51.39743041992188 15.65965270996094 Z" transform="matrix(1,0,0,1,18.228605270385742,-0.000001430511474609375)" fill="#adaacb" fill-rule="evenodd"/></g></svg>