<svg xmlns="http://www.w3.org/2000/svg" xmlns:xlink="http://www.w3.org/1999/xlink" width="138" height="138" viewBox="129 2115 138 138"><g transform="matrix(1,0,0,1,129,2115.251953125)"><g><g><rect x="0" y="0" width="138" height="138" transform="matrix(1,0,0,1,0,-0.251953125)" fill="none"/><path d="M 15.40531539916992 49.04860687255859 C 4.198246002197266 37.84165191650391 4.198246002197266 19.67153930664062 15.40531539916992 8.464359283447266" transform="matrix(1,0,0,1,33.17658615112305,40.116851806640625)" fill="none" stroke="#adaacb" stroke-width="9" stroke-linecap="round"/><path d="M 18.12956809997559 78.68789672851562 C -2.04317569732666 58.51468658447266 -2.04317569732666 25.80848503112793 18.12956809997559 5.635740280151367" transform="matrix(1,0,0,1,14.21855354309082,26.710599899291992)" fill="none" stroke="#adaacb" stroke-width="9" stroke-linecap="round"/><path d="M 15.53549957275391 8.428928375244141 C 26.74245452880859 19.63628387451172 26.74245452880859 37.80640029907227 15.53549957275391 49.01334762573242" transform="matrix(1,0,0,1,73.63053131103516,39.94893264770508)" fill="none" stroke="#adaacb" stroke-width="9" stroke-linecap="round"/><path d="M 18.36399841308594 5.571878433227539 C 38.53662872314453 25.74462509155273 38.53662872314453 58.451171875 18.36399841308594 78.62380981445312" transform="matrix(1,0,0,1,87.03621673583984,26.407936096191406)" fill="none" stroke="#adaacb" stroke-width="9" stroke-linecap="round"/><ellipse cx="6" cy="6" rx="6" ry="6" transform="matrix(1,0,0,1,63,62.748046875)" fill="none" stroke="#adaacb" stroke-width="9" stroke-linecap="round"/></g></g></g></svg>