<svg xmlns="http://www.w3.org/2000/svg" xmlns:xlink="http://www.w3.org/1999/xlink" width="116.49999952316284" height="99.31911563873291" viewBox="238.50000047683716 1401.9306631088257 116.49999952316284 99.31911563873291"><path d="M 72.82072448730469 38.51298522949219 C 79.76249694824219 40.67572784423828 86.26746368408203 44.19049835205078 91.93737030029297 48.91322326660156 M 109.693359375 30.90291213989258 C 94.8671875 17.8339786529541 75.78199768066406 10.62321758270264 56.01800537109375 10.62321758270264 C 52.94867324829102 10.62321758270264 49.89556503295898 10.79712963104248 46.87239456176758 11.13992977142334 M 38.41315078735352 66.97411346435547 C 43.56354904174805 63.31526184082031 49.72510147094727 61.349365234375 56.04286575317383 61.349365234375 C 62.36063003540039 61.349365234375 68.52213287353516 63.31526184082031 73.67253112792969 66.97411346435547 M 56.01851654052734 86.70919036865234 L 56.06924819946289 86.70919036865234 M 1.193359851837158 31.92157173156738 C 7.959141254425049 25.72166442871094 15.77920436859131 20.65375900268555 24.35366249084473 17.01778793334961 M 19.14552879333496 49.89236450195312 C 26.23498916625977 43.64714813232422 34.92237854003906 39.17353057861328 44.51560211181641 37.16313171386719 M 74.78104400634766 67.81171417236328 C 69.61085510253906 63.75917816162109 63.09675979614258 61.34276580810547 56.01800537109375 61.34276580810547 C 48.83220672607422 61.34276580810547 42.2279052734375 63.83273315429688 37.02094268798828 67.99689483642578 M 10.35895824432373 2.999999046325684 L 101.6780776977539 94.31911468505859" transform="matrix(1,0,0,1,241.306640625,1402.9306640625)" fill="none" stroke="#adaacb" stroke-width="8" stroke-linecap="round" stroke-linejoin="round"/></svg>