<svg xmlns="http://www.w3.org/2000/svg" xmlns:xlink="http://www.w3.org/1999/xlink" width="84.57691633701324" height="62.41667127609253" viewBox="189.21093881130219 297.29150438308716 84.57691633701324 62.41667127609253"><path d="M 44.80349731445312 58.5 C 47.26583862304688 58.5 49.26183319091797 60.49600219726562 49.26183319091797 62.95832824707031 C 49.26183319091797 65.42066955566406 47.26583862304688 67.41667175292969 44.80349731445312 67.41667175292969 C 42.34115982055664 67.41667175292969 40.34516906738281 65.42066955566406 40.34516906738281 62.95832824707031 C 40.34516906738281 60.49600219726562 42.34115982055664 58.5 44.80349731445312 58.5 Z M 44.80305480957031 40.66666793823242 C 50.95777893066406 40.66666793823242 56.53649520874023 43.16645431518555 60.56593322753906 47.19589614868164 C 62.30691528320312 48.93687057495117 62.30691528320312 51.75989151000977 60.56593322753906 53.50087356567383 C 58.82451629638672 55.24184799194336 56.0019416809082 55.24184799194336 54.26095962524414 53.50087356567383 C 51.83562850952148 51.07553482055664 48.49767303466797 49.58333206176758 44.80305480957031 49.58333206176758 C 41.10842895507812 49.58333206176758 37.77092361450195 51.07553482055664 35.34563446044922 53.50087356567383 C 33.60456466674805 55.24184799194336 30.78169059753418 55.24184799194336 29.04062080383301 53.50087356567383 C 27.29950523376465 51.75989151000977 27.29950523376465 48.93687057495117 29.04062080383301 47.19589614868164 C 33.0697021484375 43.16645431518555 38.64877319335938 40.66666793823242 44.80305480957031 40.66666793823242 Z M 44.80305480957031 22.83333396911621 C 55.88201522827148 22.83333396911621 65.91950225830078 27.32956314086914 73.17588043212891 34.58549880981445 C 74.9168701171875 36.32692718505859 74.9168701171875 39.14949798583984 73.17588043212891 40.89091873168945 C 71.43490600585938 42.63190078735352 68.61189270019531 42.63190078735352 66.87091064453125 40.89091873168945 C 61.21818923950195 35.23820114135742 53.4223518371582 31.75000381469727 44.80305480957031 31.75000381469727 C 36.18420028686523 31.75000381469727 28.38805198669434 35.23820114135742 22.73555374145508 40.89091873168945 C 20.99448394775391 42.63190078735352 18.17160606384277 42.63190078735352 16.4305362701416 40.89091873168945 C 14.68942165374756 39.14949798583984 14.68942165374756 36.32692718505859 16.4305362701416 34.58549880981445 C 23.68683052062988 27.32956314086914 33.7242317199707 22.83333396911621 44.80305480957031 22.83333396911621 Z M 44.80305480957031 5.000000476837158 C 60.80668640136719 5.000000476837158 75.30251312255859 11.49209308624268 85.78583526611328 21.97559356689453 C 87.52680969238281 23.71670722961426 87.52680969238281 26.5395450592041 85.78583526611328 28.28052520751953 C 84.04485321044922 30.02150535583496 81.22183990478516 30.02150535583496 79.48085784912109 28.28052520751953 C 70.6011962890625 19.40094947814941 58.34702301025391 13.91666793823242 44.80305480957031 13.91666793823242 C 31.25948524475098 13.91666793823242 19.00517845153809 19.40094947814941 10.12551307678223 28.28052520751953 C 8.384401321411133 30.02150535583496 5.561563968658447 30.02150535583496 3.820450305938721 28.28052520751953 C 2.07938289642334 26.5395450592041 2.07938289642334 23.71670722961426 3.820450305938721 21.97559356689453 C 14.30395317077637 11.49209308624268 28.7996940612793 5.000000476837158 44.80305480957031 5.000000476837158 Z" transform="matrix(1,0,0,1,186.6962890625,292.29150390625)" fill="#00cc66" fill-rule="evenodd"/></svg>