<svg xmlns="http://www.w3.org/2000/svg" xmlns:xlink="http://www.w3.org/1999/xlink" width="112.61869812011719" height="101.5000130892513" viewBox="733 1764.0000193356755 112.61869812011719 101.5000130892513"><defs><clipPath id="clip-9315a61c"><rect x="0" y="0" width="112.61869812011719" height="101.50003814697266" fill="#adaacb" fill-rule="evenodd"/></clipPath><clipPath id="clip-9315a61c"><rect x="0" y="0" width="112.61869812011719" height="101.50003814697266" fill="#adaacb" fill-rule="evenodd"/></clipPath></defs><g transform="matrix(1,0,0,1,733,1764)"><g transform="matrix(1,0,0,1,0,-0.0000057220458984375)" clip-path="url(#clip-9315a61c)"><path d="M 56.31154251098633 101.5000381469727 C 54.48105621337891 101.5000381469727 52.65495300292969 101.0095672607422 51.06093978881836 100.0286407470703 C 6.634418487548828 72.71147918701172 0 44.67613220214844 0 30.39570999145508 C 0 13.63668632507324 13.75054454803467 0 30.65407943725586 0 C 41.82968139648438 0 51.24048233032227 7.667898654937744 56.31154251098633 12.83092212677002 C 61.37822341918945 7.667898654937744 70.78903198242188 0 81.96462249755859 0 C 98.86815643310547 0 112.6186981201172 13.63668632507324 112.6186981201172 30.39570999145508 C 112.6186981201172 44.67613220214844 105.9842834472656 72.71147918701172 61.55777359008789 100.0286407470703 C 59.96376037597656 101.0095672607422 58.13764953613281 101.5000381469727 56.31154251098633 101.5000381469727 M 30.65407943725586 9.997608184814453 C 19.26390075683594 9.997608184814453 9.997608184814453 19.1500415802002 9.997608184814453 30.39570999145508 C 9.997608184814453 42.58727645874023 16.01456642150879 66.73831176757812 56.29840850830078 91.51118469238281 C 96.60414123535156 66.73831176757812 102.62109375 42.58727645874023 102.62109375 30.39570999145508 C 102.62109375 19.1500415802002 93.35481262207031 9.997608184814453 81.96462249755859 9.997608184814453 C 70.51752471923828 9.997608184814453 60.41043472290039 23.25330924987793 60.30971145629883 23.38906288146973 C 59.36819458007812 24.64587783813477 57.88365936279297 25.38595771789551 56.31154251098633 25.38595771789551 L 56.30278396606445 25.38595771789551 C 54.73066711425781 25.38157653808594 53.24613571166992 24.64150047302246 52.30461502075195 23.38030433654785 C 52.20827865600586 23.25330924987793 42.10119247436523 9.997608184814453 30.65407943725586 9.997608184814453" transform="matrix(1,0,0,1,0,0.0000250577213591896)" fill="#adaacb" fill-rule="evenodd"/><path d="M 31.07040023803711 49.21496963500977 C 27.24739837646484 49.21496963500977 24.13819885253906 46.10577011108398 24.13819885253906 42.28276443481445 C 24.13819885253906 38.45976257324219 27.24739837646484 35.35055923461914 31.07040023803711 35.35055923461914 C 34.89339828491211 35.35055923461914 38.00697708129883 38.45976257324219 38.00697708129883 42.28276443481445 C 38.00697708129883 46.10577011108398 34.89339828491211 49.21496963500977 31.07040023803711 49.21496963500977 M 18.39274597167969 33.92733764648438 C 17.54756927490234 33.92733764648438 16.69801330566406 33.61641693115234 16.03238677978516 32.99458312988281 C 14.63105297088623 31.68959426879883 14.55222988128662 29.49563598632812 15.85721683502197 28.09430313110352 C 17.81031799316406 26.00106811523438 20.12689208984375 24.36326599121094 22.74562835693359 23.22030639648438 C 25.36436080932617 22.07734680175781 28.14074325561523 21.49053955078125 31.00032806396484 21.48178100585938 C 33.74605941772461 21.49053955078125 36.64067840576172 22.0335578918457 39.26817321777344 23.16337585449219 C 41.89128875732422 24.288818359375 44.22099685668945 25.90910720825195 46.182861328125 27.98920440673828 C 47.50098419189453 29.38177490234375 47.43967819213867 31.57135009765625 46.04710388183594 32.88948059082031 C 44.6545295715332 34.20760726928711 42.46495819091797 34.14629745483398 41.14683151245117 32.75372695922852 C 39.83746337890625 31.36991500854492 38.2872428894043 30.28388595581055 36.53557968139648 29.53504943847656 C 34.78391647338867 28.78620910644531 33.02787780761719 28.47091674804688 31.0222282409668 28.41398239135742 C 29.1172981262207 28.41836547851562 27.26491546630859 28.81249237060547 25.52201080322266 29.57445907592773 C 23.77472686767578 30.3364372253418 22.22888946533203 31.43122100830078 20.93265533447266 32.82378768920898 C 20.24950790405273 33.55511093139648 19.32112884521484 33.92733764648438 18.39274597167969 33.92733764648438 M 10.78615856170654 23.36481857299805 C 9.94097900390625 23.36481857299805 9.091423988342285 23.05828094482422 8.421413421630859 22.43205642700195 C 7.02446174621582 21.12707138061523 6.945638656616211 18.93311309814453 8.250625610351562 17.53616333007812 C 11.17590236663818 14.39630794525146 14.64857196807861 11.93960475921631 18.58105087280273 10.22297382354736 C 22.50477600097656 8.506348609924316 26.67372894287109 7.626139640808105 30.96529769897461 7.612998962402344 L 31.07915496826172 7.612998962402344 C 35.32255554199219 7.612998962402344 39.45647811889648 8.458178520202637 43.36706161499023 10.13539409637451 C 47.30830001831055 11.8257474899292 50.80286407470703 14.2605562210083 53.74566268920898 17.3741340637207 C 55.05940246582031 18.7623291015625 54.99809646606445 20.96066284179688 53.60552215576172 22.27441024780273 C 52.21295547485352 23.59253692626953 50.01899337768555 23.52684783935547 48.70524978637695 22.13865661621094 C 46.41494750976562 19.71697998046875 43.69987869262695 17.82518768310547 40.63447189331055 16.50706100463867 C 37.56906509399414 15.19331455230713 34.23652267456055 14.48389339447021 30.99157333374023 14.54520130157471 C 27.6502799987793 14.55834293365479 24.40970230102539 15.24148464202881 21.3574333190918 16.57712936401367 C 18.30078506469727 17.91277313232422 15.59446620941162 19.82646179199219 13.32168865203857 22.26127243041992 C 12.63853931427002 22.99697113037109 11.71453952789307 23.36481857299805 10.78615856170654 23.36481857299805" transform="matrix(1,0,0,1,24.73754119873047,25.725526809692383)" fill="#adaacb" fill-rule="evenodd"/></g></g></svg>