<svg xmlns="http://www.w3.org/2000/svg" xmlns:xlink="http://www.w3.org/1999/xlink" width="113" height="105.99279022216797" viewBox="235 1773.7898349761963 113 105.99279022216797"><defs><clipPath id="clip-00be80cd"><rect x="0" y="0" width="113" height="105.99279022216797" fill="#adaacb" fill-rule="evenodd" stroke="#adaacb" stroke-width="1"/></clipPath><clipPath id="clip-00be80cd"><rect x="0" y="0" width="113" height="105.99279022216797" fill="#adaacb" fill-rule="evenodd" stroke="#adaacb" stroke-width="1"/></clipPath></defs><g transform="matrix(1,0,0,1,235,1773.7900390625)"><g transform="matrix(1,0,0,1,0,-0.0002040863037109375)" clip-path="url(#clip-00be80cd)"><path d="M 53.69363784790039 7.199038505554199 C 51.6029167175293 5.984220504760742 48.92240142822266 6.697265625 47.71198654174805 8.787983894348145 L 47.68997955322266 8.823193550109863 L 22.47812271118164 52.46858215332031 C 21.26770401000977 54.55929565429688 21.97634887695312 57.23981475830078 24.07146835327148 58.45463562011719 L 24.10227966308594 58.47224044799805 C 24.76250457763672 58.87277984619141 25.52396774291992 59.07084655761719 26.29423522949219 59.03563690185547 C 27.86117172241211 59.0312385559082 29.30926513671875 58.19934463500977 30.10594177246094 56.84808731079102 L 55.31779861450195 13.20269870758057 C 56.54581069946289 11.1648006439209 55.88998413085938 8.515089988708496 53.85208511352539 7.287065505981445 C 53.79927444458008 7.256258010864258 53.74645233154297 7.225446701049805 53.69363784790039 7.199038505554199 M 34.3445930480957 21.74602890014648 C 34.66150665283203 13.37435626983643 28.16487884521484 6.309930801391602 19.7932014465332 5.927000045776367 C 11.4127254486084 6.309930801391602 4.894086837768555 13.3611536026001 5.17578125 21.74602890014648 C 4.854471206665039 30.16172027587891 11.38631629943848 37.25696182250977 19.7932014465332 37.63548278808594 C 28.1956901550293 37.25696182250977 34.70111846923828 30.14852142333984 34.3445930480957 21.74602890014648 Z M 19.7932014465332 28.81045913696289 C 16.27639389038086 28.40111541748047 13.71471309661865 25.27604293823242 14.00521373748779 21.74602890014648 C 13.6751012802124 18.20281219482422 16.25438690185547 15.05573558807373 19.7932014465332 14.68600559234619 C 23.32321166992188 15.05573558807373 25.88489151000977 18.21601867675781 25.51516723632812 21.74602890014648 C 25.84527587890625 25.26724243164062 23.30560684204102 28.40111541748047 19.7932014465332 28.81045913696289 M 58.07313919067383 28.03139114379883 C 49.70146942138672 28.41432189941406 43.20483779907227 35.47874450683594 43.52614593505859 43.85042190551758 C 43.16522598266602 52.25290679931641 49.67065811157227 59.36134719848633 58.07313919067383 59.7442741394043 C 66.48442840576172 59.36134719848633 73.01187896728516 52.26611328125 72.69057464599609 43.85042190551758 C 72.97225952148438 35.46554565429688 66.45362854003906 28.41432189941406 58.07313919067383 28.03139114379883 M 58.07313919067383 50.91484832763672 C 54.56513977050781 50.50990676879883 52.02107238769531 47.37163162231445 52.3511848449707 43.85042190551758 C 52.02107238769531 40.3336181640625 54.56513977050781 37.19533920288086 58.07313919067383 36.79039764404297 C 61.61196517944336 37.16012191772461 64.19125366210938 40.31160736083984 63.86552810668945 43.85042190551758 C 64.15603637695312 47.38483047485352 61.59435653686523 50.50990676879883 58.07313919067383 50.91484832763672" transform="matrix(1,0,0,1,17.56682777404785,20.16165542602539)" fill="#adaacb" fill-rule="evenodd" stroke="#adaacb" stroke-width="1"/><path d="M 56.49779891967773 0.0273523461073637 C 26.27702140808105 -0.9233740568161011 0.9947414994239807 22.77876472473145 0 52.99954223632812 C 0.9947414994239807 83.21591949462891 26.27702140808105 106.9180526733398 56.49779891967773 105.9673233032227 C 86.71857452392578 106.9180526733398 112.0008544921875 83.21591949462891 112.9955978393555 52.99954223632812 C 112.0008544921875 22.77876472473145 86.71857452392578 -0.9233740568161011 56.49779891967773 0.0273523461073637 M 56.49779891967773 97.13789367675781 C 31.16710090637207 98.05340576171875 9.85938549041748 78.32583618164062 8.825030326843262 52.99954223632812 C 9.85938549041748 27.67324447631836 31.16710090637207 7.941269874572754 56.49779891967773 8.856784820556641 C 81.8284912109375 7.941269874572754 103.1362075805664 27.67324447631836 104.1705627441406 52.99954223632812 C 103.1362075805664 78.32583618164062 81.8284912109375 98.05340576171875 56.49779891967773 97.13789367675781" transform="matrix(1,0,0,1,0,-0.0000438308525190223)" fill="#adaacb" fill-rule="evenodd" stroke="#adaacb" stroke-width="1"/></g></g></svg>