<svg xmlns="http://www.w3.org/2000/svg" xmlns:xlink="http://www.w3.org/1999/xlink" width="112" height="111.99914231483126" viewBox="239 882.0006650429568 112 111.99914231483126"><defs><clipPath id="clip-9f10f35f"><rect x="0" y="0" width="112" height="112" fill="#adaacb" fill-rule="evenodd"/></clipPath><clipPath id="clip-9f10f35f"><rect x="0" y="0" width="112" height="112" fill="#adaacb" fill-rule="evenodd"/></clipPath></defs><g transform="matrix(1,0,0,1,239,882)"><g transform="matrix(1,0,0,1,0,-0.0001926422119140625)" clip-path="url(#clip-9f10f35f)"><path d="M 44.43727874755859 8.85767936706543 C 43.17284393310547 6.248681545257568 40.03403472900391 5.157886981964111 37.42503356933594 6.422317981719971 C 36.36095428466797 6.938774108886719 35.50167846679688 7.793600559234619 34.98967361450195 8.85767936706543 L 27.0068473815918 25.37096214294434 L 9.189067840576172 28.02893447875977 C 6.321838855743408 28.4607982635498 4.345053672790527 31.1365852355957 4.776918411254883 34.00381088256836 C 4.941651344299316 35.11686325073242 5.462561130523682 36.14532852172852 6.25950813293457 36.94227981567383 L 19.21101188659668 49.82254409790039 L 16.15233612060547 68.02320861816406 C 15.6670446395874 70.88153839111328 17.59485626220703 73.58848571777344 20.45317840576172 74.07377624511719 C 21.60185623168945 74.26967620849609 22.78168869018555 74.07377624511719 23.81015205383301 73.52169799804688 L 39.71347427368164 64.97789764404297 L 55.61680221557617 73.51725006103516 C 58.17237854003906 74.88853454589844 61.35570907592773 73.92685699462891 62.72698593139648 71.37127685546875 C 63.27462005615234 70.34726715087891 63.466064453125 69.16743469238281 63.27462005615234 68.02320861816406 L 60.2159423828125 49.80918502807617 L 73.16744232177734 36.93336486816406 C 75.21992492675781 34.88980102539062 75.22882843017578 31.56399536132812 73.18080902099609 29.51152420043945 C 72.38385772705078 28.71457290649414 71.35539245605469 28.18921089172363 70.24233245849609 28.02448081970215 L 52.42455673217773 25.36205291748047 L 44.44618606567383 8.853229522705078 L 44.43727874755859 8.85767936706543 Z M 35.24789810180664 32.44108200073242 L 39.71347427368164 23.20273017883301 L 44.17905044555664 32.44108200073242 C 44.93592834472656 34.00381088256836 46.41851425170898 35.09014892578125 48.13706970214844 35.34392929077148 L 58.34600830078125 36.87104034423828 L 50.88409042358398 44.28398513793945 C 49.68199157714844 45.48608016967773 49.13437271118164 47.2001838684082 49.41485977172852 48.87866973876953 L 51.14677047729492 59.20782089233398 L 42.19781112670898 54.4083251953125 C 40.64844131469727 53.57130813598633 38.77850723266602 53.57130813598633 37.2291374206543 54.4083251953125 L 28.28463172912598 59.20782089233398 L 30.02099990844727 48.87866973876953 C 30.30148696899414 47.19573211669922 29.74941444396973 45.48608016967773 28.54286193847656 44.28398513793945 L 21.0809440612793 36.8665885925293 L 31.29878425598145 35.34392929077148 C 33.01288604736328 35.09014892578125 34.49102401733398 34.00381088256836 35.24789810180664 32.44108200073242" transform="matrix(1,0,0,1,16.286523818969727,20.35417938232422)" fill="#adaacb" fill-rule="evenodd"/><path d="M 84.00000762939453 5.249165534973145 C 84.00000762939453 2.350771188735962 81.64923858642578 0 78.75083923339844 0 C 75.84798431396484 0 73.50167846679688 2.350771188735962 73.50167846679688 5.249165534973145 L 73.50167846679688 6.998887538909912 L 38.49833679199219 6.998887538909912 L 38.49833679199219 5.249165534973145 C 38.49833679199219 2.350771188735962 36.14756393432617 0 33.24916458129883 0 C 30.35077285766602 0 28.00000190734863 2.350771188735962 28.00000190734863 5.249165534973145 L 28.00000190734863 6.998887538909912 L 15.75194835662842 6.998887538909912 C 7.052314281463623 6.998887538909912 0 14.05120086669922 0 22.7508373260498 L 0 96.24805450439453 C 0 104.9476928710938 7.052314281463623 112.0000076293945 15.75194835662842 112.0000076293945 L 96.24805450439453 112.0000076293945 C 104.9476928710938 112.0000076293945 112.0000076293945 104.9476928710938 112.0000076293945 96.24805450439453 L 112.0000076293945 22.7508373260498 C 112.0000076293945 14.05120086669922 104.9476928710938 6.998887538909912 96.24805450439453 6.998887538909912 L 84.00000762939453 6.998887538909912 L 84.00000762939453 5.249165534973145 Z M 28.00000190734863 22.7508373260498 L 28.00000190734863 17.50166893005371 L 15.75194835662842 17.50166893005371 C 12.84910202026367 17.50166893005371 10.49833106994629 19.85244178771973 10.49833106994629 22.7508373260498 L 10.49833106994629 96.24805450439453 C 10.49833106994629 99.14644622802734 12.85355567932129 101.5016784667969 15.75194835662842 101.5016784667969 L 96.24805450439453 101.5016784667969 C 99.15090179443359 101.5016784667969 101.4972305297852 99.15090179443359 101.4972305297852 96.24805450439453 L 101.4972305297852 22.7508373260498 C 101.4972305297852 19.85244178771973 99.15090179443359 17.50166893005371 96.24805450439453 17.50166893005371 L 84.00000762939453 17.50166893005371 L 84.00000762939453 22.7508373260498 C 84.00000762939453 25.64923095703125 81.64923858642578 28.00000190734863 78.75083923339844 28.00000190734863 C 75.84798431396484 28.00000190734863 73.50167846679688 25.64923095703125 73.50167846679688 22.7508373260498 L 73.50167846679688 17.50166893005371 L 38.49833679199219 17.50166893005371 L 38.49833679199219 22.7508373260498 C 38.49833679199219 25.64923095703125 36.14756393432617 28.00000190734863 33.24916458129883 28.00000190734863 C 30.35077285766602 28.00000190734863 28.00000190734863 25.64923095703125 28.00000190734863 22.7508373260498" transform="matrix(1,0,0,1,0,0.0008576851687394083)" fill="#adaacb" fill-rule="evenodd"/></g></g></svg>