<svg xmlns="http://www.w3.org/2000/svg" xmlns:xlink="http://www.w3.org/1999/xlink" width="283.234375" height="44.61609649658203" viewBox="55 62.384376525878906 283.234375 44.61609649658203"><defs><clipPath id="clip-65198ba7"><rect x="0" y="0" width="283.234375" height="44.61609649658203"/></clipPath><clipPath id="clip-65198ba7"><rect x="0" y="0" width="283.234375" height="44.61609649658203"/></clipPath></defs><g transform="matrix(1,0,0,1,55,62.38427734375)"><g transform="matrix(1,0,0,1,0,0.00009918212890625)"><g clip-path="url(#clip-65198ba7)"><path d="M 81.12300109863281 23.37911796569824 C 81.12300109863281 21.98850631713867 81.30027770996094 20.65310287475586 81.65483093261719 19.37351989746094 C 82.00938415527344 18.09455108642578 82.51483917236328 16.89348411560059 83.17118835449219 15.77154922485352 C 83.82753753662109 14.64961338043213 84.61209106445312 13.62950420379639 85.52486419677734 12.71122360229492 C 86.4376220703125 11.79294204711914 87.45159149169922 11.00838470458984 88.56800842285156 10.35877895355225 C 89.68380737304688 9.709786415100098 90.88242340087891 9.20433235168457 92.16262054443359 8.84303092956543 C 93.44281768798828 8.48295783996582 94.77883148193359 8.302000045776367 96.17066955566406 8.302000045776367 C 97.54901123046875 8.302000045776367 98.8819580078125 8.48295783996582 100.1689071655273 8.84303092956543 C 101.4558486938477 9.20433235168457 102.6569137573242 9.709786415100098 103.773323059082 10.35877895355225 C 104.8891296386719 11.00838470458984 105.9074020385742 11.79294204711914 106.8262939453125 12.71122360229492 C 107.7451934814453 13.62950420379639 108.5297470092773 14.64961338043213 109.1799621582031 15.77154922485352 C 109.8295669555664 16.89348411560059 110.3356399536133 18.09455108642578 110.6963272094727 19.37351989746094 C 111.0576324462891 20.65310287475586 111.2379684448242 21.98850631713867 111.2379684448242 23.37911796569824 C 111.2379684448242 24.77033996582031 111.0576324462891 26.10574531555176 110.6963272094727 27.38471412658691 C 110.3356399536133 28.6642951965332 109.8295669555664 29.85800170898438 109.1799621582031 30.96705627441406 C 108.5297470092773 32.07610702514648 107.7451934814453 33.08640289306641 106.8262939453125 33.99794006347656 C 105.9074020385742 34.91069793701172 104.8891296386719 35.69464111328125 103.773323059082 36.35037994384766 C 102.6569137573242 37.00673675537109 101.4558486938477 37.51157379150391 100.1689071655273 37.86612701416016 C 98.8819580078125 38.22006988525391 97.54901123046875 38.39734649658203 96.17066955566406 38.39734649658203 C 94.77883148193359 38.39734649658203 93.44281768798828 38.22006988525391 92.16262054443359 37.86612701416016 C 90.88242340087891 37.51157379150391 89.68380737304688 37.00673675537109 88.56800842285156 36.35037994384766 C 87.45159149169922 35.69464111328125 86.4376220703125 34.91069793701172 85.52486419677734 33.99794006347656 C 84.61209106445312 33.08640289306641 83.82753753662109 32.07610702514648 83.17118835449219 30.96705627441406 C 82.51483917236328 29.85800170898438 82.00938415527344 28.6642951965332 81.65483093261719 27.38471412658691 C 81.30027770996094 26.10574531555176 81.12300109863281 24.77033996582031 81.12300109863281 23.37911796569824 M 88.74037933349609 23.3594856262207 C 88.74037933349609 24.44891166687012 88.92378997802734 25.46533966064453 89.29061889648438 26.41061210632324 C 89.65743255615234 27.35527038574219 90.17208862304688 28.17908477783203 90.83396911621094 28.88083076477051 C 91.49583435058594 29.58257865905762 92.27854919433594 30.13403701782227 93.18272399902344 30.53398513793945 C 94.08689880371094 30.93454360961914 95.08308410644531 31.13451385498047 96.17066955566406 31.13451385498047 C 97.25825500488281 31.13451385498047 98.25750732421875 30.93454360961914 99.16842651367188 30.53398513793945 C 100.079345703125 30.13403701782227 100.8657455444336 29.58257865905762 101.5270004272461 28.88083076477051 C 102.1888809204102 28.17908477783203 102.7035369873047 27.35527038574219 103.0703582763672 26.41061210632324 C 103.4371795654297 25.46533966064453 103.6205902099609 24.44891166687012 103.6205902099609 23.3594856262207 C 103.6205902099609 22.2835578918457 103.4371795654297 21.27019691467285 103.0703582763672 20.31879043579102 C 102.7035369873047 19.36738395690918 102.1888809204102 18.53743553161621 101.5270004272461 17.82832717895508 C 100.8657455444336 17.12044715881348 100.079345703125 16.5628547668457 99.16842651367188 16.15554428100586 C 98.25750732421875 15.74885272979736 97.25825500488281 15.54519939422607 96.17066955566406 15.54519939422607 C 95.08308410644531 15.54519939422607 94.08689880371094 15.74885272979736 93.18272399902344 16.15554428100586 C 92.27854919433594 16.5628547668457 91.49583435058594 17.12044715881348 90.83396911621094 17.82832717895508 C 90.17208862304688 18.53743553161621 89.65743255615234 19.36738395690918 89.29061889648438 20.31879043579102 C 88.92378997802734 21.27019691467285 88.74037933349609 22.2835578918457 88.74037933349609 23.3594856262207" transform="matrix(1,0,0,1,-31.3609676361084,-3.2094929218292236)" fill="#ffffff" fill-rule="evenodd"/><path d="M 137.2415771484375 16.02328300476074 C 137.412109375 15.87913036346436 137.5924682617188 15.78711891174316 137.7826232910156 15.74785900115967 C 137.9727783203125 15.70798778533936 138.1537322998047 15.68835830688477 138.3242645263672 15.68835830688477 L 141.2962493896484 15.68835830688477 C 141.5324249267578 15.68835830688477 141.7354583740234 15.73129749298096 141.9066162109375 15.81656169891357 C 142.0771484375 15.90182781219482 142.2212829589844 16.01714897155762 142.3396759033203 16.16068649291992 C 142.4574584960938 16.30484008789062 142.5525360107422 16.4686222076416 142.6249084472656 16.65141868591309 C 142.6966857910156 16.83483123779297 142.7659912109375 17.02437591552734 142.8316345214844 17.22066879272461 L 143.2450714111328 18.94742965698242 C 143.4419860839844 18.54257583618164 143.7597351074219 18.12361526489258 144.1995544433594 17.69177055358887 C 144.6387481689453 17.25992584228516 145.1834564208984 16.86734199523926 145.8330688476562 16.51401519775391 C 146.482666015625 16.16068649291992 147.2334899902344 15.86992931365967 148.0867614746094 15.64051246643066 C 148.9400024414062 15.41170883178711 149.8908081054688 15.29699993133545 150.9409790039062 15.29699993133545 C 152.4370880126953 15.29699993133545 153.7718811035156 15.58530521392822 154.9465789794922 16.16068649291992 C 156.1206512451172 16.73668479919434 157.1180572509766 17.52185440063477 157.9382019042969 18.51619911193848 C 158.7583312988281 19.51054573059082 159.3815612792969 20.6729679107666 159.8078918457031 22.00284957885742 C 160.2341918945312 23.33273124694824 160.4476776123047 24.75155830383301 160.4476776123047 26.26055908203125 L 160.4476776123047 39.15269470214844 C 160.4476776123047 39.65201187133789 160.3397064208984 40.02864837646484 160.1231689453125 40.28444290161133 C 159.9066314697266 40.54085159301758 159.5619049072266 40.66843795776367 159.0895690917969 40.66843795776367 L 154.5429534912109 40.66843795776367 C 153.9786071777344 40.66843795776367 153.5915374755859 40.57335662841797 153.3817596435547 40.38320159912109 C 153.1713562011719 40.19304275512695 153.0664520263672 39.82192993164062 153.0664520263672 39.27108001708984 L 153.0664520263672 26.45746612548828 C 153.0664520263672 25.89312362670898 152.9388732910156 25.35884094238281 152.6830749511719 24.85338592529297 C 152.4272766113281 24.34854698181152 152.0886840820312 23.90198135375977 151.6690979003906 23.51491737365723 C 151.2489166259766 23.12785148620605 150.7735137939453 22.82298469543457 150.2422790527344 22.59970092773438 C 149.7104644775391 22.37641906738281 149.16943359375 22.2647762298584 148.6185760498047 22.2647762298584 C 148.1456451416016 22.2647762298584 147.6634979248047 22.37028312683105 147.1715393066406 22.5800724029541 C 146.6795806884766 22.78985977172852 146.2268829345703 23.08184623718262 145.8134460449219 23.45602798461914 C 145.3999938964844 23.82959747314453 145.0522003173828 24.2694149017334 144.7706298828125 24.77486991882324 C 144.4878540039062 25.27970886230469 144.3277435302734 25.82748794555664 144.2878723144531 26.4182071685791 L 144.2878723144531 39.21158218383789 C 144.2878723144531 39.43547439575195 144.2455444335938 39.65814590454102 144.1602935791016 39.88142776489258 C 144.0744171142578 40.10470962524414 143.9468231201172 40.27462768554688 143.7762908935547 40.39301681518555 C 143.6057586669922 40.49790954589844 143.4450531005859 40.57029342651367 143.2941589355469 40.60955047607422 C 143.1432342529297 40.64881134033203 142.9690399169922 40.66843795776367 142.7727355957031 40.66843795776367 L 138.3242645263672 40.66843795776367 C 137.7599182128906 40.66843795776367 137.3526153564453 40.53103256225586 137.1035766601562 40.25500106811523 C 136.8545227050781 39.97957611083984 136.7299957275391 39.61214065551758 136.7299957275391 39.15269470214844 L 136.7299957275391 17.14215087890625 C 136.7299957275391 16.89371871948242 136.7858123779297 16.66491508483887 136.8968353271484 16.45512771606445 C 137.0084991455078 16.24595260620117 137.1630706787109 16.0821704864502 137.3593597412109 15.96439456939697 L 137.2415771484375 16.02328300476074 Z" transform="matrix(1,0,0,1,-52.85782241821289,-5.913658142089844)" fill="#ffffff" fill-rule="evenodd"/><path d="M 203.5422058105469 37.66444778442383 C 202.3877563476562 38.72749328613281 201.0885620117188 39.55744552612305 199.6451721191406 40.154296875 C 198.2012023925781 40.75114822387695 196.6725769042969 41.04988098144531 195.0586853027344 41.04988098144531 C 193.2607727050781 41.04988098144531 191.5616149902344 40.72170639038086 189.9612121582031 40.06596374511719 C 188.3601989746094 39.40961456298828 186.9560852050781 38.50114440917969 185.7489013671875 37.33995056152344 C 184.5416870117188 36.17814636230469 183.5835266113281 34.81022644042969 182.8750305175781 33.2362060546875 C 182.1665649414062 31.66096115112305 181.8119812011719 29.94891738891602 181.8119812011719 28.09824752807617 C 181.8119812011719 26.94441413879395 181.9530944824219 25.82493209838867 182.2352600097656 24.74225425720215 C 182.5174255371094 23.66019058227539 182.9173583984375 22.64621734619141 183.4363098144531 21.70155906677246 C 183.9540405273438 20.75690078735352 184.5840148925781 19.88769340515137 185.3256225585938 19.09332084655762 C 186.066650390625 18.29956245422363 186.897216796875 17.62051200866699 187.8154907226562 17.0561695098877 C 188.7337646484375 16.4924430847168 189.7311706542969 16.0526237487793 190.80712890625 15.73732948303223 C 191.8830261230469 15.42264747619629 193.0184631347656 15.26499938964844 194.2127990722656 15.26499938964844 C 195.3016052246094 15.26499938964844 196.3578796386719 15.40976715087891 197.3816833496094 15.69868469238281 C 198.4048461914062 15.98698806762695 199.3660888671875 16.3936824798584 200.2653503417969 16.91876602172852 C 201.1633911132812 17.44384956359863 201.9871826171875 18.07321166992188 202.7349548339844 18.80808258056641 C 203.4833374023438 19.54356575012207 204.1261901855469 20.34713935852051 204.6641235351562 21.21941566467285 C 205.2021179199219 22.09230422973633 205.6186218261719 23.02346801757812 205.9142761230469 24.01474571228027 C 206.2093505859375 25.00540924072266 206.357177734375 26.0255184173584 206.357177734375 27.07507133483887 C 206.357177734375 27.75718879699707 206.3473510742188 28.31478309631348 206.3277282714844 28.74846649169922 C 206.3074951171875 29.1809253692627 206.2062683105469 29.52566337585449 206.0222473144531 29.78145790100098 C 205.8382263183594 30.03725051879883 205.5333557128906 30.21452903747559 205.1070251464844 30.31267356872559 C 204.6807250976562 30.41143417358398 204.0538024902344 30.46050453186035 203.2275390625 30.46050453186035 L 189.0558166503906 30.46050453186035 C 189.1864624023438 31.30027008056641 189.4520874023438 32.00262832641602 189.8526306152344 32.56636047363281 C 190.2525939941406 33.13131332397461 190.7156982421875 33.5803337097168 191.2407836914062 33.91525650024414 C 191.7652587890625 34.24956893920898 192.3228759765625 34.48880004882812 192.91357421875 34.63356399536133 C 193.503662109375 34.77771759033203 194.061279296875 34.85010147094727 194.5863647460938 34.85010147094727 C 195.0586853027344 34.85010147094727 195.5445251464844 34.8004150390625 196.043212890625 34.7022705078125 C 196.5413208007812 34.60412216186523 197.0240478515625 34.47285079956055 197.4896545410156 34.30845642089844 C 197.9552307128906 34.14467620849609 198.3821716308594 33.95390319824219 198.7692260742188 33.73736572265625 C 199.1563110351562 33.52144622802734 199.4679260253906 33.29509353637695 199.7040710449219 33.05892944335938 C 199.9138793945312 32.88840103149414 200.0942077636719 32.76019668579102 200.2450866699219 32.67493438720703 C 200.3960266113281 32.58966827392578 200.5567321777344 32.54734420776367 200.7278747558594 32.54734420776367 C 200.8977661132812 32.54734420776367 201.0719909667969 32.60623168945312 201.249267578125 32.72400665283203 C 201.4265441894531 32.8423957824707 201.6265258789062 33.0129280090332 201.8497924804688 33.2362060546875 L 203.93603515625 35.59785079956055 C 204.0801696777344 35.76838302612305 204.1721801757812 35.9223518371582 204.2114562988281 36.06036758422852 C 204.2507019042969 36.19838714599609 204.2703247070312 36.33946990966797 204.2703247070312 36.48362731933594 C 204.2703247070312 36.74616622924805 204.1979675292969 36.97251510620117 204.0538024902344 37.16267395019531 C 203.9096374511719 37.35283279418945 203.7391052246094 37.52029800415039 203.5422058105469 37.66444778442383 M 194.0747680664062 21.26848793029785 C 193.5631713867188 21.26848793029785 193.0675354003906 21.37031555175781 192.5884704589844 21.5739688873291 C 192.1094055175781 21.77762222290039 191.6603698730469 22.04936599731445 191.2407836914062 22.39042472839355 C 190.8206176757812 22.73209571838379 190.443359375 23.1185474395752 190.1084289550781 23.55223083496094 C 189.7741088867188 23.98468780517578 189.5017700195312 24.42450714111328 189.2919921875 24.87045860290527 L 199.3501281738281 24.87045860290527 C 199.0740966796875 24.35887145996094 198.7753601074219 23.88654136657715 198.4545288085938 23.45347213745117 C 198.1325073242188 23.02040100097656 197.7650756835938 22.64008331298828 197.3522338867188 22.3119068145752 C 196.9388122558594 21.98373031616211 196.4664611816406 21.72793579101562 195.9346618652344 21.54391098022461 C 195.4034118652344 21.36050033569336 194.7832641601562 21.26848793029785 194.0747680664062 21.26848793029785" transform="matrix(1,0,0,1,-70.28585052490234,-5.901286602020264)" fill="#ffffff" fill-rule="evenodd"/><path d="M 229.0435943603516 15.89497566223145 C 229.2141265869141 15.75082397460938 229.3913879394531 15.65881156921387 229.5754241943359 15.61955451965332 C 229.7588348388672 15.58029556274414 229.9361267089844 15.56066513061523 230.1066284179688 15.56066513061523 L 233.0786285400391 15.56066513061523 C 233.3276672363281 15.56066513061523 233.5343933105469 15.59992408752441 233.6987915039062 15.67844200134277 C 233.8625793457031 15.75757217407227 233.9969177246094 15.86553192138672 234.1024169921875 16.0035514831543 C 234.2073059082031 16.14095497131348 234.2956390380859 16.29860305786133 234.3680419921875 16.47587966918945 C 234.4397888183594 16.65254402160645 234.5084991455078 16.84638214111328 234.5747528076172 17.0561695098877 L 235.4010314941406 19.43805885314941 C 235.7684478759766 18.96573066711426 236.1395721435547 18.48358535766602 236.5131530761719 17.99162864685059 C 236.8873291015625 17.49905586242676 237.3302001953125 17.05310249328613 237.841796875 16.65254402160645 C 238.3539886474609 16.25259780883789 238.9637298583984 15.92135238647461 239.6722259521484 15.65881156921387 C 240.3813323974609 15.39688491821289 241.2474822998047 15.26499938964844 242.2706604003906 15.26499938964844 C 244.0679473876953 15.26499938964844 245.7247772216797 15.59685707092285 247.2405242919922 16.25934410095215 C 248.7562866210938 16.92183303833008 250.0616455078125 17.83398056030273 251.1577911376953 18.99517440795898 C 252.2533721923828 20.15636825561523 253.1090698242188 21.52121543884277 253.7261810302734 23.08910369873047 C 254.3426513671875 24.6576042175293 254.6511993408203 26.35369491577148 254.6511993408203 28.17737579345703 C 254.6511993408203 29.9881763458252 254.3426513671875 31.68058967590332 253.7261810302734 33.25583648681641 C 253.1090698242188 34.83047103881836 252.2533721923828 36.19838714599609 251.1577911376953 37.35958099365234 C 250.0616455078125 38.52077484130859 248.7562866210938 39.43598937988281 247.2405242919922 40.105224609375 C 245.7247772216797 40.77446365356445 244.0679473876953 41.10877227783203 242.2706604003906 41.10877227783203 C 241.4174041748047 41.10877227783203 240.6825103759766 41.00694274902344 240.0660400390625 40.80390167236328 C 239.4495544433594 40.60086441040039 238.9017791748047 40.33464050292969 238.4226989746094 40.00707626342773 C 237.9436340332031 39.67890167236328 237.5203552246094 39.31760025024414 237.1529388427734 38.92440414428711 C 236.7854919433594 38.53059005737305 236.4248046875 38.13677597045898 236.0702514648438 37.74357604980469 L 236.0702514648438 46.91535186767578 C 236.0702514648438 47.30916595458984 235.9524841308594 47.64409255981445 235.71630859375 47.91951370239258 C 235.4801635742188 48.1949348449707 235.1127166748047 48.33295059204102 234.6139984130859 48.33295059204102 L 230.1066284179688 48.33295059204102 C 229.9489898681641 48.33295059204102 229.7784576416016 48.29983139038086 229.5950469970703 48.23419570922852 C 229.4110412597656 48.16856002807617 229.2404937744141 48.07654571533203 229.0828552246094 47.95877456665039 C 228.9258117675781 47.84038162231445 228.7945404052734 47.69316101074219 228.6896514892578 47.51588821411133 C 228.5841522216797 47.3386116027832 228.5320129394531 47.13863372802734 228.5320129394531 46.91535186767578 L 228.5320129394531 17.01691246032715 C 228.5320129394531 16.75498390197754 228.5810699462891 16.53844833374023 228.6798400878906 16.36730575561523 C 228.7779846191406 16.19738960266113 228.8994293212891 16.03974342346191 229.0435943603516 15.89497566223145 M 247.4276275634766 28.17737579345703 C 247.4276275634766 27.33761215209961 247.2896118164062 26.54017448425293 247.0141906738281 25.78567314147949 C 246.73876953125 25.03117370605469 246.3516998291016 24.37236595153809 245.8530120849609 23.80741119384766 C 245.3542785644531 23.24368286132812 244.7574310302734 22.79711723327637 244.0618133544922 22.46894264221191 C 243.3662109375 22.14137840270996 242.5982208251953 21.97698211669922 241.7590637207031 21.97698211669922 C 240.9321746826172 21.97698211669922 240.1482238769531 22.13156127929688 239.4066162109375 22.43949699401855 C 238.6656036376953 22.74804496765137 238.0160064697266 23.16823387145996 237.4584045410156 23.6994514465332 C 236.9002075195312 24.23066711425781 236.447509765625 24.85757637023926 236.1003265380859 25.57895088195801 C 235.7519073486328 26.30094337463379 235.5586700439453 27.06832313537598 235.5193939208984 27.88232421875 L 235.5193939208984 28.17737579345703 C 235.5193939208984 29.04351806640625 235.6831817626953 29.85690879821777 236.0113830566406 30.6181526184082 C 236.3395385742188 31.37940216064453 236.7854919433594 32.0382080078125 237.3498382568359 32.59580230712891 C 237.9141693115234 33.15401077270508 238.57666015625 33.59689712524414 239.3379058837891 33.92507171630859 C 240.0985565185547 34.25263595581055 240.9057922363281 34.41641616821289 241.7590637207031 34.41641616821289 C 242.5982208251953 34.41641616821289 243.3662109375 34.25263595581055 244.0618133544922 33.92507171630859 C 244.7574310302734 33.59689712524414 245.3542785644531 33.15401077270508 245.8530120849609 32.59580230712891 C 246.3516998291016 32.0382080078125 246.73876953125 31.37940216064453 247.0141906738281 30.6181526184082 C 247.2896118164062 29.85690879821777 247.4276275634766 29.04351806640625 247.4276275634766 28.17737579345703" transform="matrix(1,0,0,1,-88.34715270996094,-5.901286602020264)" fill="#ffffff" fill-rule="evenodd"/><path d="M 277.5289916992188 5.306118488311768 C 277.5289916992188 4.885929584503174 277.63330078125 4.531988620758057 277.843017578125 4.243070125579834 C 278.0528564453125 3.954766035079956 278.4141540527344 3.809999942779541 278.9257202148438 3.809999942779541 L 283.7484130859375 3.809999942779541 C 283.8796691894531 3.809999942779541 284.01708984375 3.846804618835449 284.161865234375 3.918574333190918 C 284.3059692382812 3.990344047546387 284.4403076171875 4.09278392791748 284.5648803710938 4.223441123962402 C 284.6893920898438 4.354712009429932 284.7942504882812 4.512359142303467 284.880126953125 4.695770740509033 C 284.9653930664062 4.879795074462891 285.0077514648438 5.083448886871338 285.0077514648438 5.306118488311768 L 285.0077514648438 34.71260070800781 C 285.0077514648438 35.2113037109375 284.8666687011719 35.58855438232422 284.58447265625 35.8443489074707 C 284.3029174804688 36.10014343261719 283.9379272460938 36.22773361206055 283.4926147460938 36.22773361206055 L 278.9257202148438 36.22773361206055 C 278.4141540527344 36.22773361206055 278.0528564453125 36.10014343261719 277.843017578125 35.8443489074707 C 277.63330078125 35.58855438232422 277.5289916992188 35.2113037109375 277.5289916992188 34.71260070800781 L 277.5289916992188 5.306118488311768 Z" transform="matrix(1,0,0,1,-107.28866577148438,-1.4729512929916382)" fill="#ffffff" fill-rule="evenodd"/><path d="M 322.6767578125 39.19982528686523 C 322.6767578125 39.4231071472168 322.6375122070312 39.63596343994141 322.5589599609375 39.83961486816406 C 322.4798583984375 40.04327011108398 322.3485717773438 40.203369140625 322.1651916503906 40.32175827026367 C 322.0203857421875 40.46652603149414 321.8504943847656 40.55792617797852 321.653564453125 40.59718322753906 C 321.4566650390625 40.63644409179688 321.2861328125 40.65607070922852 321.1413879394531 40.65607070922852 L 317.2639770507812 40.65607070922852 C 316.9885864257812 40.65607070922852 316.7652587890625 40.62049102783203 316.5947875976562 40.54811096191406 C 316.4241943359375 40.47572708129883 316.2861938476562 40.37451553344727 316.1813049316406 40.24324417114258 C 316.076416015625 40.11197280883789 315.9874877929688 39.95125579833984 315.9157104492188 39.7604866027832 C 315.8433227539062 39.57032775878906 315.7678833007812 39.36421966552734 315.6893310546875 39.14093780517578 L 315.43359375 38.25516891479492 C 315.0790405273438 38.60910797119141 314.6759643554688 38.95691299438477 314.2232971191406 39.2979736328125 C 313.7705993652344 39.63964080810547 313.2712707519531 39.94451141357422 312.7271728515625 40.21318435668945 C 312.1824340820312 40.48247528076172 311.5984802246094 40.69839477539062 310.9752502441406 40.86279296875 C 310.35205078125 41.02718734741211 309.7055053710938 41.10877227783203 309.036865234375 41.10877227783203 C 307.8425598144531 41.10877227783203 306.6973266601562 40.95787048339844 305.6017456054688 40.65607070922852 C 304.5061950683594 40.35427093505859 303.482421875 39.92488098144531 302.5316162109375 39.36728668212891 C 301.57958984375 38.8096923828125 300.7171020507812 38.14045715332031 299.9429931640625 37.35958099365234 C 299.1688537597656 36.57870483398438 298.502685546875 35.70949554443359 297.9450988769531 34.7513427734375 C 297.3875122070312 33.79380035400391 296.95751953125 32.76019668579102 296.6557006835938 31.65114593505859 C 296.3539123535156 30.54270553588867 296.2030029296875 29.38457679748535 296.2030029296875 28.17737579345703 C 296.2030029296875 26.35369491577148 296.5379333496094 24.6576042175293 297.2071533203125 23.08910369873047 C 297.8764038085938 21.52121543884277 298.7879333496094 20.15636825561523 299.9429931640625 18.99517440795898 C 301.0974426269531 17.83398056030273 302.45556640625 16.92183303833008 304.0172729492188 16.25934410095215 C 305.5790405273438 15.59685707092285 307.2518310546875 15.26499938964844 309.036865234375 15.26499938964844 C 309.8502197265625 15.26499938964844 310.6077880859375 15.35701179504395 311.3101806640625 15.54103660583496 C 312.0119018554688 15.72444725036621 312.65478515625 15.9734935760498 313.23876953125 16.28878784179688 C 313.82275390625 16.60347175598145 314.3508911132812 16.98133277893066 314.8232116699219 17.4205379486084 C 315.2955322265625 17.8603572845459 315.708984375 18.33575248718262 316.0635375976562 18.84733963012695 L 316.634033203125 17.0561695098877 C 316.7652587890625 16.72860527038574 316.8732299804688 16.46299934387207 316.9591369628906 16.25934410095215 C 317.0443725585938 16.05630493164062 317.1358032226562 15.90479278564453 317.2345581054688 15.8066463470459 C 317.3326721191406 15.70849800109863 317.4541625976562 15.64286422729492 317.5983276367188 15.60973930358887 C 317.7430419921875 15.57722854614258 317.9461059570312 15.56066513061523 318.2086181640625 15.56066513061523 L 321.1413879394531 15.56066513061523 C 321.2861328125 15.56066513061523 321.4566650390625 15.58029556274414 321.653564453125 15.61955451965332 C 321.8504943847656 15.65881156921387 322.0203857421875 15.75082397460938 322.1651916503906 15.89497566223145 C 322.3485717773438 16.03974342346191 322.4798583984375 16.20352363586426 322.5589599609375 16.38754844665527 C 322.6375122070312 16.57095909118652 322.6767578125 16.78074645996094 322.6767578125 17.01691246032715 L 322.6767578125 39.19982528686523 Z M 303.2891845703125 28.17737579345703 C 303.2891845703125 29.04351806640625 303.4235229492188 29.85383987426758 303.6928100585938 30.60833740234375 C 303.9614868164062 31.36284065246582 304.345458984375 32.01551055908203 304.8441772460938 32.56636047363281 C 305.3422546386719 33.11781692504883 305.9428100585938 33.55395889282227 306.6451721191406 33.87538528442383 C 307.346923828125 34.19742584228516 308.1246948242188 34.35752868652344 308.9773864746094 34.35752868652344 C 309.8563842773438 34.35752868652344 310.6734619140625 34.19742584228516 311.427978515625 33.87538528442383 C 312.1824340820312 33.55395889282227 312.8381958007812 33.11781692504883 313.3964233398438 32.56636047363281 C 313.9540100097656 32.01551055908203 314.39013671875 31.36284065246582 314.7054443359375 30.60833740234375 C 315.0201110839844 29.85383987426758 315.177734375 29.04351806640625 315.177734375 28.17737579345703 C 315.177734375 27.33761215209961 315.0201110839844 26.53710556030273 314.7054443359375 25.77585983276367 C 314.39013671875 25.01522445678711 313.9540100097656 24.34598922729492 313.3964233398438 23.76815414428711 C 312.8381958007812 23.1909294128418 312.1824340820312 22.73516273498535 311.427978515625 22.40023803710938 C 310.6734619140625 22.06592750549316 309.8563842773438 21.89846611022949 308.9773864746094 21.89846611022949 C 308.1246948242188 21.89846611022949 307.346923828125 22.06592750549316 306.6451721191406 22.40023803710938 C 305.9428100585938 22.73516273498535 305.3422546386719 23.1909294128418 304.8441772460938 23.76815414428711 C 304.345458984375 24.34598922729492 303.9614868164062 25.01522445678711 303.6928100585938 25.77585983276367 C 303.4235229492188 26.53710556030273 303.2891845703125 27.33761215209961 303.2891845703125 28.17737579345703" transform="matrix(1,0,0,1,-114.50775909423828,-5.901286602020264)" fill="#ffffff" fill-rule="evenodd"/><path d="M 344.4901733398438 17.78394508361816 C 344.2803955078125 17.25947761535645 344.2767333984375 16.81045722961426 344.4803466796875 16.43627548217773 C 344.6834106445312 16.06209182739258 345.133056640625 15.875 345.8286743164062 15.875 L 350.6905517578125 15.875 C 351.0181274414062 15.875 351.2874145507812 15.97682666778564 351.4971923828125 16.18047904968262 C 351.7069702148438 16.38413429260254 351.8646850585938 16.63685989379883 351.9695434570312 16.93804550170898 L 357.5399780273438 32.78254699707031 L 362.9920043945312 16.93804550170898 C 363.1361083984375 16.51847076416016 363.3201293945312 16.23630142211914 363.54345703125 16.0915355682373 C 363.76611328125 15.94738292694092 364.0746459960938 15.875 364.468505859375 15.875 L 369.5267333984375 15.875 C 369.8941040039062 15.875 370.1830444335938 15.92468643188477 370.392822265625 16.02283096313477 C 370.6026611328125 16.1215934753418 370.75048828125 16.25286293029785 370.8357543945312 16.4160327911377 C 370.9209594726562 16.5810375213623 370.950439453125 16.76445198059082 370.9246826171875 16.96810531616211 C 370.897705078125 17.17053031921387 370.8455200195312 17.37050437927246 370.7670288085938 17.56802558898926 C 370.268310546875 18.80159950256348 369.7235717773438 20.14988708496094 369.1334838867188 21.61288070678711 C 368.5427856445312 23.07587432861328 367.9293823242188 24.59836769104004 367.2926635742188 26.17975044250488 C 366.656494140625 27.76051902770996 366.010009765625 29.3682804107666 365.354248046875 31.00180244445801 C 364.6978759765625 32.63471603393555 364.05810546875 34.23940658569336 363.4348754882812 35.81343078613281 C 362.8116455078125 37.3880615234375 362.2111206054688 38.9007453918457 361.6339111328125 40.35024261474609 C 361.056640625 41.80035400390625 360.5285034179688 43.1326904296875 360.0494384765625 44.34602737426758 C 359.5703735351562 45.55997085571289 359.1538696289062 46.62670135498047 358.7999267578125 47.54436874389648 C 358.4453735351562 48.46326446533203 358.1760864257812 49.17175674438477 357.99267578125 49.67046356201172 L 358.0515747070312 49.57170104980469 C 357.9595336914062 49.9262580871582 357.7957763671875 50.21149444580078 357.5595703125 50.42803192138672 C 357.3234252929688 50.64456558227539 357.0344848632812 50.75375366210938 356.6934204101562 50.75375366210938 L 352.1467895507812 50.75375366210938 C 351.5560913085938 50.75375366210938 351.153076171875 50.6378173828125 350.9365844726562 50.40901184082031 C 350.7200317382812 50.17898178100586 350.6114501953125 49.84099197387695 350.6114501953125 49.39565277099609 C 350.6114501953125 49.22512054443359 350.6341552734375 49.09323883056641 350.6801147460938 49.00122451782227 C 350.7261352539062 48.90982818603516 350.7623291015625 48.8503303527832 350.7887573242188 48.82456207275391 L 353.8790893554688 40.79312896728516 L 344.4901733398438 17.78394508361816 Z" transform="matrix(1,0,0,1,-133.113037109375,-6.137104511260986)" fill="#ffffff" fill-rule="evenodd"/><path d="M 27.90652275085449 21.16322326660156 L 39.62948989868164 28.19418144226074 C 40.61769866943359 28.78674125671387 40.64530563354492 30.20986557006836 39.68101501464844 30.8404541015625 L 28.24022102355957 38.3216552734375 C 27.2127513885498 38.99334716796875 25.84790420532227 38.27197265625 25.8239803314209 37.04514312744141 L 25.54180908203125 22.53297996520996 C 25.51849937438965 21.3055362701416 26.85390281677246 20.53201866149902 27.90652275085449 21.16322326660156" transform="matrix(1,0,0,1,-9.87397289276123,-8.094486236572266)" fill="#ffffff" fill-rule="evenodd"/><path d="M 43.0677375793457 19.30335235595703 C 43.3143310546875 21.63187408447266 43.17753982543945 24.00946807861328 42.64509963989258 26.36068534851074 C 41.37226104736328 31.98140525817871 37.98559951782227 36.76971817016602 33.11079406738281 39.84415435791016 C 28.23599052429199 42.91797637939453 22.45639991760254 43.90986633300781 16.83506774902344 42.63703155517578 C 11.21373653411865 41.36358261108398 6.42603588104248 37.97753143310547 3.351601600646973 33.10272598266602 C -1.717656493186951 25.06393051147461 -0.9815590977668762 14.80947685241699 5.183870792388916 7.586521148681641 C 6.225449085235596 6.365825653076172 8.058944702148438 6.221673011779785 9.279026985168457 7.262638092041016 C 10.49910831451416 8.304215431213379 10.64326095581055 10.13771152496338 9.602296829223633 11.35779285430908 C 5.097379684448242 16.6349983215332 4.560028553009033 24.12908363342285 8.265052795410156 30.00437164306641 C 10.51137638092041 33.56646728515625 14.01090621948242 36.04098129272461 18.11894607543945 36.97153091430664 C 22.22636985778809 37.90208435058594 26.45033836364746 37.17702865600586 30.01243591308594 34.93008804321289 C 33.57514953613281 32.68376541137695 36.04904937744141 29.18484687805176 36.97959899902344 25.07742500305176 C 37.91014862060547 20.96938705444336 37.18570709228516 16.74541473388672 34.93877029418945 13.18331623077393 C 31.22638320922852 7.296988964080811 24.22180557250977 4.555639266967773 17.50982475280762 6.361531734466553 C 15.9603385925293 6.778653621673584 14.36668682098389 5.860371589660645 13.95017910003662 4.311500072479248 C 13.52998924255371 2.764468431472778 14.45072555541992 1.1689772605896 16.00020980834961 0.7518553137779236 C 25.18731880187988 -1.720205307006836 34.77314758300781 2.030211210250854 39.85222244262695 10.0843448638916 C 41.64093780517578 12.92077350616455 42.7248420715332 16.06391143798828 43.0677375793457 19.30335235595703" transform="matrix(1,0,0,1,0.00009620249329600483,0.0001300425356021151)" fill="#ffffff" fill-rule="evenodd"/><path d="M 408.2510986328125 43.36780548095703 L 426.7860412597656 43.36780548095703 C 432.4711608886719 43.36780548095703 437.0791320800781 38.75922393798828 437.0791320800781 33.07471084594727 L 437.0791320800781 22.78100204467773 L 408.2510986328125 22.78100204467773 C 402.5665893554688 22.78100204467773 397.9580078125 27.38958358764648 397.9580078125 33.07471084594727 C 397.9580078125 38.75922393798828 402.5665893554688 43.36780548095703 408.2510986328125 43.36780548095703" transform="matrix(1,0,0,1,-153.84475708007812,-8.806865692138672)" fill="#ffffff" fill-rule="evenodd"/></g></g><g transform="matrix(1,0,0,1,253.18568420410156,15.33963394165039)"><text x="0" y="0" dominant-baseline="alphabetic" font-family="Montserrat-ExtraBold" font-size="13" font-weight="normal" fill="#00c564" fill-rule="evenodd"><tspan x="0" y="12" font-family="Montserrat-ExtraBold" font-size="13" font-weight="normal" letter-spacing="-0.13px" fill="rgba(0,197,100,1 )" fill-rule="evenodd">P</tspan><tspan x="9" y="12" font-family="Montserrat-ExtraBold" font-size="13" font-weight="normal" letter-spacing="0px" fill="rgba(0,197,100,1 )" fill-rule="evenodd">E</tspan></text></g></g></svg>