<svg xmlns="http://www.w3.org/2000/svg" xmlns:xlink="http://www.w3.org/1999/xlink" width="117.140625" height="117.140625" viewBox="234 1317.298828125 117.140625 117.140625"><g transform="matrix(1,0,0,1,237,1320.298828125)"><path d="M 3 26.36458015441895 C 3 13.4606761932373 13.4606761932373 3 26.36458015441895 3 L 84.77603149414062 3 C 97.67972564697266 3 108.140625 13.4606761932373 108.140625 26.36458015441895 L 108.140625 84.77603149414062 C 108.140625 97.67972564697266 97.67972564697266 108.140625 84.77603149414062 108.140625 L 26.36458015441895 108.140625 C 13.4606761932373 108.140625 3 97.67972564697266 3 84.77603149414062 L 3 26.36458015441895 Z" fill="none" stroke="#adaacb" stroke-width="12"/><path d="M 36.28516006469727 20.17506790161133 C 40.17945098876953 22.4233226776123 40.17945098876953 28.04367637634277 36.28516006469727 30.29193305969238 L 18.76172065734863 40.40937423706055 C 14.86742782592773 42.65763092041016 10 39.84687042236328 10 35.35036087036133 L 10 15.11605453491211 C 10 10.61977386474609 14.86742782592773 7.809479713439941 18.76172065734863 10.05774021148682 L 36.28516006469727 20.17506790161133 Z" transform="matrix(1,0,0,1,33.88801574707031,30.336809158325195)" fill="none" stroke="#adaacb" stroke-width="12"/></g></svg>