<svg xmlns="http://www.w3.org/2000/svg" xmlns:xlink="http://www.w3.org/1999/xlink" width="99.724609375" height="110.78243255615234" viewBox="740 1331.999994277954 99.724609375 110.78243255615234"><defs><clipPath id="clip-0d7586b4"><rect x="0" y="0" width="99.724609375" height="110.78243255615234" fill="none" stroke="#adaacb" stroke-width="12"/></clipPath><clipPath id="clip-0d7586b4"><rect x="0" y="0" width="99.724609375" height="110.78243255615234" fill="none" stroke="#adaacb" stroke-width="12"/></clipPath></defs><g transform="matrix(1,0,0,1,740,1332)"><g transform="matrix(1,0,0,1,0,-0.0000057220458984375)" clip-path="url(#clip-0d7586b4)"><path d="M 89.83456420898438 17.93681526184082 L 84.30357360839844 17.93681526184082 C 69.65706634521484 18.01183891296387 55.63993453979492 12.00568675994873 45.59078216552734 1.348000288009644 C 35.54579544067383 12.00151920318604 21.52450180053711 18.01183891296387 6.882162094116211 17.93681526184082 L 1.347000122070312 17.93681526184082 L 1.347000122070312 35.4467658996582 C 1.347000122070312 66.93216705322266 20.14904403686523 93.39089965820312 45.59495162963867 100.8933868408203 C 71.04502868652344 93.39089965820312 89.83872985839844 66.93216705322266 89.83872985839844 35.4467658996582 L 89.83456420898438 17.93681526184082 Z" transform="matrix(1,0,0,1,4.267354488372803,4.2705464363098145)" fill="none" stroke="#adaacb" stroke-width="12" stroke-linecap="round" stroke-linejoin="round"/></g></g></svg>