<svg xmlns="http://www.w3.org/2000/svg" xmlns:xlink="http://www.w3.org/1999/xlink" width="112.07477903366089" height="95.22898435592651" viewBox="737.1152658462524 891.1147203445435 112.07477903366089 95.22898435592651"><defs><clipPath id="clip-81fe83f6"><rect x="0" y="0" width="112.30531311035156" height="95.45951843261719" fill="none" stroke="#adaacb" stroke-width="11"/></clipPath><clipPath id="clip-81fe83f6"><rect x="0" y="0" width="112.30531311035156" height="95.45951843261719" fill="none" stroke="#adaacb" stroke-width="11"/></clipPath></defs><g transform="matrix(1,0,0,1,737,891)"><g transform="matrix(1,0,0,1,0,0.0002002716064453125)" clip-path="url(#clip-81fe83f6)"><path d="M 40.81486129760742 85.73698425292969 L 63.27592086791992 85.73698425292969 M 12.7385311126709 74.50644683837891 L 91.35224151611328 74.50644683837891 C 97.55584716796875 74.50644683837891 102.5827789306641 69.47951507568359 102.5827789306641 63.27592086791992 L 102.5827789306641 12.7385311126709 C 102.5827789306641 6.534928798675537 97.55584716796875 1.507999897003174 91.35224151611328 1.507999897003174 L 12.7385311126709 1.507999897003174 C 6.534928798675537 1.507999897003174 1.507999897003174 6.534928798675537 1.507999897003174 12.7385311126709 L 1.507999897003174 63.27592086791992 C 1.507999897003174 69.47951507568359 6.534928798675537 74.50644683837891 12.7385311126709 74.50644683837891 Z" transform="matrix(1,0,0,1,4.107265949249268,4.106520175933838)" fill="none" stroke="#adaacb" stroke-width="11" stroke-linecap="round" stroke-linejoin="round"/></g></g></svg>